<mxfile host="app.diagrams.net" modified="2023-06-10T13:30:06.525Z" agent="Mozilla/5.0 (Windows NT 10.0; Win64; x64) AppleWebKit/537.36 (KHTML, like Gecko) Chrome/114.0.0.0 Safari/537.36" etag="_ECuNmKzpK8epQFb7NRH" version="21.3.2" type="device">
  <diagram id="nJPXixU6zRH9wzaMpiaA" name="PÃ¡gina-1">
    <mxGraphModel dx="6152" dy="2620" grid="1" gridSize="10" guides="1" tooltips="1" connect="1" arrows="1" fold="1" page="1" pageScale="1" pageWidth="291" pageHeight="413" math="0" shadow="0">
      <root>
        <mxCell id="0" />
        <mxCell id="1" parent="0" />
        <mxCell id="-s76jAeznodHaaLhFz4p-1" value="START" style="ellipse;whiteSpace=wrap;html=1;aspect=fixed;" parent="1" vertex="1">
          <mxGeometry x="-380" y="50" width="120" height="120" as="geometry" />
        </mxCell>
        <mxCell id="-s76jAeznodHaaLhFz4p-2" value="FINISH" style="ellipse;whiteSpace=wrap;html=1;aspect=fixed;" parent="1" vertex="1">
          <mxGeometry x="76" y="70" width="100" height="100" as="geometry" />
        </mxCell>
        <mxCell id="-s76jAeznodHaaLhFz4p-3" value="PROGRAM" style="rounded=0;whiteSpace=wrap;html=1;" parent="1" vertex="1">
          <mxGeometry x="-150" y="80" width="120" height="60" as="geometry" />
        </mxCell>
        <mxCell id="-s76jAeznodHaaLhFz4p-4" value="" style="endArrow=classic;html=1;rounded=0;exitX=1;exitY=0.5;exitDx=0;exitDy=0;entryX=0;entryY=0.5;entryDx=0;entryDy=0;" parent="1" source="-s76jAeznodHaaLhFz4p-1" target="-s76jAeznodHaaLhFz4p-3" edge="1">
          <mxGeometry width="50" height="50" relative="1" as="geometry">
            <mxPoint x="50" y="190" as="sourcePoint" />
            <mxPoint x="100" y="140" as="targetPoint" />
          </mxGeometry>
        </mxCell>
        <mxCell id="-s76jAeznodHaaLhFz4p-5" value="" style="endArrow=classic;html=1;rounded=0;exitX=1;exitY=0.5;exitDx=0;exitDy=0;entryX=0.013;entryY=0.403;entryDx=0;entryDy=0;entryPerimeter=0;" parent="1" target="-s76jAeznodHaaLhFz4p-2" edge="1">
          <mxGeometry width="50" height="50" relative="1" as="geometry">
            <mxPoint x="-30" y="109.5" as="sourcePoint" />
            <mxPoint x="80" y="109.5" as="targetPoint" />
          </mxGeometry>
        </mxCell>
        <mxCell id="-s76jAeznodHaaLhFz4p-8" value="" style="endArrow=classic;html=1;rounded=0;" parent="1" target="b4CzyY3gaDAT03zvZMXL-57" edge="1">
          <mxGeometry width="50" height="50" relative="1" as="geometry">
            <mxPoint x="-430" y="270" as="sourcePoint" />
            <mxPoint x="-400" y="270" as="targetPoint" />
          </mxGeometry>
        </mxCell>
        <mxCell id="-s76jAeznodHaaLhFz4p-9" value="&lt;b&gt;PROGRAM&lt;/b&gt;" style="text;html=1;strokeColor=none;fillColor=none;align=center;verticalAlign=middle;whiteSpace=wrap;rounded=0;" parent="1" vertex="1">
          <mxGeometry x="-490" y="230" width="60" height="30" as="geometry" />
        </mxCell>
        <mxCell id="-s76jAeznodHaaLhFz4p-13" value="[" style="ellipse;whiteSpace=wrap;html=1;" parent="1" vertex="1">
          <mxGeometry x="-381" y="1074" width="80" height="63" as="geometry" />
        </mxCell>
        <mxCell id="-s76jAeznodHaaLhFz4p-15" value="INT" style="rounded=0;whiteSpace=wrap;html=1;" parent="1" vertex="1">
          <mxGeometry x="-265" y="1077" width="100" height="60" as="geometry" />
        </mxCell>
        <mxCell id="-s76jAeznodHaaLhFz4p-16" value="]" style="ellipse;whiteSpace=wrap;html=1;" parent="1" vertex="1">
          <mxGeometry x="8" y="1076" width="80" height="63" as="geometry" />
        </mxCell>
        <mxCell id="-s76jAeznodHaaLhFz4p-19" value="SetUp" style="ellipse;whiteSpace=wrap;html=1;" parent="1" vertex="1">
          <mxGeometry x="-332.5" y="486.5" width="90" height="67" as="geometry" />
        </mxCell>
        <mxCell id="8ygw2xqHuKe9CShxlt0k-13" value="" style="edgeStyle=orthogonalEdgeStyle;rounded=0;orthogonalLoop=1;jettySize=auto;html=1;" edge="1" parent="1" source="-s76jAeznodHaaLhFz4p-20" target="-s76jAeznodHaaLhFz4p-21">
          <mxGeometry relative="1" as="geometry" />
        </mxCell>
        <mxCell id="-s76jAeznodHaaLhFz4p-20" value="IDENTIFIER" style="rounded=0;whiteSpace=wrap;html=1;" parent="1" vertex="1">
          <mxGeometry x="-285" y="1257" width="120" height="60" as="geometry" />
        </mxCell>
        <mxCell id="8ygw2xqHuKe9CShxlt0k-14" value="" style="edgeStyle=orthogonalEdgeStyle;rounded=0;orthogonalLoop=1;jettySize=auto;html=1;" edge="1" parent="1" source="-s76jAeznodHaaLhFz4p-21" target="8ygw2xqHuKe9CShxlt0k-8">
          <mxGeometry relative="1" as="geometry" />
        </mxCell>
        <mxCell id="-s76jAeznodHaaLhFz4p-21" value="need" style="ellipse;whiteSpace=wrap;html=1;" parent="1" vertex="1">
          <mxGeometry x="-129" y="1254" width="90" height="67" as="geometry" />
        </mxCell>
        <mxCell id="-s76jAeznodHaaLhFz4p-23" value="IDENTIFIER" style="rounded=0;whiteSpace=wrap;html=1;" parent="1" vertex="1">
          <mxGeometry x="260" y="1259.5" width="120" height="60" as="geometry" />
        </mxCell>
        <mxCell id="-s76jAeznodHaaLhFz4p-24" value="," style="ellipse;whiteSpace=wrap;html=1;" parent="1" vertex="1">
          <mxGeometry x="209" y="1400" width="80" height="63" as="geometry" />
        </mxCell>
        <mxCell id="-s76jAeznodHaaLhFz4p-28" value="" style="endArrow=classic;html=1;rounded=0;exitX=1;exitY=0.5;exitDx=0;exitDy=0;entryX=0;entryY=0.5;entryDx=0;entryDy=0;" parent="1" target="-s76jAeznodHaaLhFz4p-23" edge="1">
          <mxGeometry width="50" height="50" relative="1" as="geometry">
            <mxPoint x="220" y="1289.5" as="sourcePoint" />
            <mxPoint x="270" y="1346" as="targetPoint" />
          </mxGeometry>
        </mxCell>
        <mxCell id="-s76jAeznodHaaLhFz4p-29" value="" style="endArrow=classic;html=1;rounded=0;exitX=0.5;exitY=1;exitDx=0;exitDy=0;entryX=1;entryY=0.5;entryDx=0;entryDy=0;" parent="1" source="-s76jAeznodHaaLhFz4p-23" edge="1">
          <mxGeometry width="50" height="50" relative="1" as="geometry">
            <mxPoint x="410" y="1386" as="sourcePoint" />
            <mxPoint x="287" y="1427.5" as="targetPoint" />
            <Array as="points">
              <mxPoint x="320" y="1428" />
            </Array>
          </mxGeometry>
        </mxCell>
        <mxCell id="-s76jAeznodHaaLhFz4p-30" value="" style="endArrow=classic;html=1;rounded=0;exitX=0;exitY=0.5;exitDx=0;exitDy=0;entryX=0.5;entryY=1;entryDx=0;entryDy=0;" parent="1" edge="1">
          <mxGeometry width="50" height="50" relative="1" as="geometry">
            <mxPoint x="207" y="1427.5" as="sourcePoint" />
            <mxPoint x="170" y="1319.5" as="targetPoint" />
            <Array as="points">
              <mxPoint x="170" y="1428" />
            </Array>
          </mxGeometry>
        </mxCell>
        <mxCell id="-s76jAeznodHaaLhFz4p-31" value="radio_check" style="ellipse;whiteSpace=wrap;html=1;" parent="1" vertex="1">
          <mxGeometry x="-337.5" y="598.5" width="90" height="67" as="geometry" />
        </mxCell>
        <mxCell id="-s76jAeznodHaaLhFz4p-33" value="equals" style="ellipse;whiteSpace=wrap;html=1;" parent="1" vertex="1">
          <mxGeometry x="-115" y="1591" width="80" height="63" as="geometry" />
        </mxCell>
        <mxCell id="-s76jAeznodHaaLhFz4p-34" value="STRING" style="rounded=0;whiteSpace=wrap;html=1;" parent="1" vertex="1">
          <mxGeometry x="1258" y="136.5" width="100" height="53" as="geometry" />
        </mxCell>
        <mxCell id="-s76jAeznodHaaLhFz4p-35" value="INT" style="rounded=0;whiteSpace=wrap;html=1;" parent="1" vertex="1">
          <mxGeometry x="1258" y="216.5" width="100" height="53" as="geometry" />
        </mxCell>
        <mxCell id="-s76jAeznodHaaLhFz4p-38" value="TYRE" style="rounded=0;whiteSpace=wrap;html=1;" parent="1" vertex="1">
          <mxGeometry x="1260" y="293.5" width="100" height="53" as="geometry" />
        </mxCell>
        <mxCell id="-s76jAeznodHaaLhFz4p-40" value="VALUE" style="rounded=0;whiteSpace=wrap;html=1;" parent="1" vertex="1">
          <mxGeometry x="35" y="1592.5" width="120" height="60" as="geometry" />
        </mxCell>
        <mxCell id="-s76jAeznodHaaLhFz4p-41" value="then &amp;gt;&amp;gt;" style="ellipse;whiteSpace=wrap;html=1;" parent="1" vertex="1">
          <mxGeometry x="211" y="1594" width="80" height="63" as="geometry" />
        </mxCell>
        <mxCell id="-s76jAeznodHaaLhFz4p-42" value="" style="endArrow=classic;html=1;rounded=0;entryX=0;entryY=0.5;entryDx=0;entryDy=0;" parent="1" target="-s76jAeznodHaaLhFz4p-13" edge="1">
          <mxGeometry width="50" height="50" relative="1" as="geometry">
            <mxPoint x="-481" y="1106" as="sourcePoint" />
            <mxPoint x="-461" y="1087" as="targetPoint" />
          </mxGeometry>
        </mxCell>
        <mxCell id="-s76jAeznodHaaLhFz4p-43" value="&lt;b&gt;RaceLoop&lt;/b&gt;" style="text;html=1;strokeColor=none;fillColor=none;align=center;verticalAlign=middle;whiteSpace=wrap;rounded=0;" parent="1" vertex="1">
          <mxGeometry x="-491" y="1057" width="60" height="30" as="geometry" />
        </mxCell>
        <mxCell id="-s76jAeznodHaaLhFz4p-45" value="" style="endArrow=classic;html=1;rounded=0;" parent="1" edge="1">
          <mxGeometry width="50" height="50" relative="1" as="geometry">
            <mxPoint x="-485" y="1283" as="sourcePoint" />
            <mxPoint x="-411" y="1283" as="targetPoint" />
          </mxGeometry>
        </mxCell>
        <mxCell id="-s76jAeznodHaaLhFz4p-46" value="&lt;b&gt;SetUpFunction&lt;/b&gt;" style="text;html=1;strokeColor=none;fillColor=none;align=center;verticalAlign=middle;whiteSpace=wrap;rounded=0;" parent="1" vertex="1">
          <mxGeometry x="-485" y="1239" width="60" height="30" as="geometry" />
        </mxCell>
        <mxCell id="-s76jAeznodHaaLhFz4p-48" value="&lt;b&gt;radiocheckCondition&lt;/b&gt;" style="text;html=1;strokeColor=none;fillColor=none;align=center;verticalAlign=middle;whiteSpace=wrap;rounded=0;" parent="1" vertex="1">
          <mxGeometry x="-485" y="1564" width="60" height="30" as="geometry" />
        </mxCell>
        <mxCell id="-s76jAeznodHaaLhFz4p-50" value="EngineOn" style="ellipse;whiteSpace=wrap;html=1;" parent="1" vertex="1">
          <mxGeometry x="-337.5" y="370" width="90" height="67" as="geometry" />
        </mxCell>
        <mxCell id="-s76jAeznodHaaLhFz4p-51" value="call" style="ellipse;whiteSpace=wrap;html=1;" parent="1" vertex="1">
          <mxGeometry x="-337.5" y="836" width="100" height="80" as="geometry" />
        </mxCell>
        <mxCell id="-s76jAeznodHaaLhFz4p-52" value="IDENTIFIER" style="rounded=0;whiteSpace=wrap;html=1;" parent="1" vertex="1">
          <mxGeometry x="-358.5" y="1930" width="120" height="60" as="geometry" />
        </mxCell>
        <mxCell id="8ygw2xqHuKe9CShxlt0k-20" value="" style="edgeStyle=orthogonalEdgeStyle;rounded=0;orthogonalLoop=1;jettySize=auto;html=1;" edge="1" parent="1" source="-s76jAeznodHaaLhFz4p-53" target="8ygw2xqHuKe9CShxlt0k-19">
          <mxGeometry relative="1" as="geometry" />
        </mxCell>
        <mxCell id="-s76jAeznodHaaLhFz4p-53" value="need" style="ellipse;whiteSpace=wrap;html=1;" parent="1" vertex="1">
          <mxGeometry x="-202.5" y="1930" width="90" height="67" as="geometry" />
        </mxCell>
        <mxCell id="-s76jAeznodHaaLhFz4p-55" value="IDENTIFIER" style="rounded=0;whiteSpace=wrap;html=1;" parent="1" vertex="1">
          <mxGeometry x="42.5" y="1933.5" width="120" height="60" as="geometry" />
        </mxCell>
        <mxCell id="-s76jAeznodHaaLhFz4p-56" value="," style="ellipse;whiteSpace=wrap;html=1;" parent="1" vertex="1">
          <mxGeometry x="62.5" y="2066.75" width="80" height="63" as="geometry" />
        </mxCell>
        <mxCell id="-s76jAeznodHaaLhFz4p-59" value="" style="endArrow=classic;html=1;rounded=0;exitX=1;exitY=0.5;exitDx=0;exitDy=0;entryX=1;entryY=0.5;entryDx=0;entryDy=0;" parent="1" source="-s76jAeznodHaaLhFz4p-55" target="-s76jAeznodHaaLhFz4p-56" edge="1">
          <mxGeometry width="50" height="50" relative="1" as="geometry">
            <mxPoint x="302.5" y="2056.5" as="sourcePoint" />
            <mxPoint x="212.5" y="2106.5" as="targetPoint" />
            <Array as="points">
              <mxPoint x="212.5" y="1963.75" />
              <mxPoint x="212.5" y="2098.5" />
            </Array>
          </mxGeometry>
        </mxCell>
        <mxCell id="-s76jAeznodHaaLhFz4p-60" value="" style="endArrow=classic;html=1;rounded=0;exitX=0;exitY=0.5;exitDx=0;exitDy=0;" parent="1" source="-s76jAeznodHaaLhFz4p-56" edge="1">
          <mxGeometry width="50" height="50" relative="1" as="geometry">
            <mxPoint x="-7.5" y="2086.5" as="sourcePoint" />
            <mxPoint x="6.5" y="1959.75" as="targetPoint" />
            <Array as="points">
              <mxPoint x="6.5" y="2098.75" />
            </Array>
          </mxGeometry>
        </mxCell>
        <mxCell id="-s76jAeznodHaaLhFz4p-61" value="" style="endArrow=classic;html=1;rounded=0;entryX=0;entryY=0.5;entryDx=0;entryDy=0;" parent="1" target="-s76jAeznodHaaLhFz4p-52" edge="1">
          <mxGeometry width="50" height="50" relative="1" as="geometry">
            <mxPoint x="-468.5" y="1960" as="sourcePoint" />
            <mxPoint x="-468.5" y="1960" as="targetPoint" />
          </mxGeometry>
        </mxCell>
        <mxCell id="-s76jAeznodHaaLhFz4p-62" value="&lt;b&gt;callSetUp&lt;/b&gt;" style="text;html=1;strokeColor=none;fillColor=none;align=center;verticalAlign=middle;whiteSpace=wrap;rounded=0;" parent="1" vertex="1">
          <mxGeometry x="-458.5" y="1920" width="60" height="30" as="geometry" />
        </mxCell>
        <mxCell id="-s76jAeznodHaaLhFz4p-63" value="" style="endArrow=classic;html=1;rounded=0;exitX=1;exitY=0.5;exitDx=0;exitDy=0;entryX=0;entryY=0.5;entryDx=0;entryDy=0;" parent="1" source="-s76jAeznodHaaLhFz4p-50" target="-s76jAeznodHaaLhFz4p-66" edge="1">
          <mxGeometry width="50" height="50" relative="1" as="geometry">
            <mxPoint x="-177.5" y="440" as="sourcePoint" />
            <mxPoint x="-177.5" y="400" as="targetPoint" />
          </mxGeometry>
        </mxCell>
        <mxCell id="-s76jAeznodHaaLhFz4p-64" value="IDENTIFIER" style="rounded=0;whiteSpace=wrap;html=1;" parent="1" vertex="1">
          <mxGeometry x="-240" y="240" width="120" height="60" as="geometry" />
        </mxCell>
        <mxCell id="-s76jAeznodHaaLhFz4p-65" value="VALUE" style="rounded=0;whiteSpace=wrap;html=1;" parent="1" vertex="1">
          <mxGeometry x="85.5" y="240" width="120" height="60" as="geometry" />
        </mxCell>
        <mxCell id="-s76jAeznodHaaLhFz4p-66" value="RaceLoop" style="rounded=0;whiteSpace=wrap;html=1;" parent="1" vertex="1">
          <mxGeometry x="-167.5" y="373.5" width="120" height="60" as="geometry" />
        </mxCell>
        <mxCell id="-s76jAeznodHaaLhFz4p-67" value="SetUpFunction" style="rounded=0;whiteSpace=wrap;html=1;" parent="1" vertex="1">
          <mxGeometry x="-167.5" y="490" width="120" height="60" as="geometry" />
        </mxCell>
        <mxCell id="-s76jAeznodHaaLhFz4p-68" value="radiocheckCondition" style="rounded=0;whiteSpace=wrap;html=1;" parent="1" vertex="1">
          <mxGeometry x="-167.5" y="602" width="120" height="60" as="geometry" />
        </mxCell>
        <mxCell id="-s76jAeznodHaaLhFz4p-69" value="callSetUp" style="rounded=0;whiteSpace=wrap;html=1;" parent="1" vertex="1">
          <mxGeometry x="-144" y="845.25" width="120" height="60" as="geometry" />
        </mxCell>
        <mxCell id="-s76jAeznodHaaLhFz4p-70" value="" style="endArrow=classic;html=1;rounded=0;exitX=1;exitY=0.5;exitDx=0;exitDy=0;entryX=0;entryY=0.5;entryDx=0;entryDy=0;" parent="1" source="-s76jAeznodHaaLhFz4p-19" target="-s76jAeznodHaaLhFz4p-67" edge="1">
          <mxGeometry width="50" height="50" relative="1" as="geometry">
            <mxPoint x="132.5" y="593" as="sourcePoint" />
            <mxPoint x="-177.5" y="523" as="targetPoint" />
          </mxGeometry>
        </mxCell>
        <mxCell id="-s76jAeznodHaaLhFz4p-71" value="" style="endArrow=classic;html=1;rounded=0;exitX=1;exitY=0.5;exitDx=0;exitDy=0;entryX=0;entryY=0.5;entryDx=0;entryDy=0;" parent="1" source="-s76jAeznodHaaLhFz4p-31" target="-s76jAeznodHaaLhFz4p-68" edge="1">
          <mxGeometry width="50" height="50" relative="1" as="geometry">
            <mxPoint x="-227.5" y="672.5" as="sourcePoint" />
            <mxPoint x="-177.5" y="622.5" as="targetPoint" />
          </mxGeometry>
        </mxCell>
        <mxCell id="-s76jAeznodHaaLhFz4p-72" value="" style="endArrow=classic;html=1;rounded=0;exitX=1;exitY=0.5;exitDx=0;exitDy=0;entryX=0;entryY=0.5;entryDx=0;entryDy=0;" parent="1" source="-s76jAeznodHaaLhFz4p-51" target="-s76jAeznodHaaLhFz4p-69" edge="1">
          <mxGeometry width="50" height="50" relative="1" as="geometry">
            <mxPoint x="-232.5" y="1060" as="sourcePoint" />
            <mxPoint x="-182.5" y="1010" as="targetPoint" />
          </mxGeometry>
        </mxCell>
        <mxCell id="-s76jAeznodHaaLhFz4p-73" value="\n" style="ellipse;whiteSpace=wrap;html=1;aspect=fixed;" parent="1" vertex="1">
          <mxGeometry x="391" y="240" width="60" height="60" as="geometry" />
        </mxCell>
        <mxCell id="-s76jAeznodHaaLhFz4p-78" value="" style="endArrow=classic;html=1;rounded=0;entryX=0;entryY=0.5;entryDx=0;entryDy=0;" parent="1" target="-s76jAeznodHaaLhFz4p-50" edge="1">
          <mxGeometry width="50" height="50" relative="1" as="geometry">
            <mxPoint x="-430" y="404" as="sourcePoint" />
            <mxPoint x="-350" y="451.5" as="targetPoint" />
          </mxGeometry>
        </mxCell>
        <mxCell id="-s76jAeznodHaaLhFz4p-80" value="PROGRAM" style="rounded=0;whiteSpace=wrap;html=1;" parent="1" vertex="1">
          <mxGeometry x="6" y="372" width="120" height="60" as="geometry" />
        </mxCell>
        <mxCell id="-s76jAeznodHaaLhFz4p-81" value="EngineOff" style="ellipse;whiteSpace=wrap;html=1;" parent="1" vertex="1">
          <mxGeometry x="206" y="365.5" width="114" height="74.5" as="geometry" />
        </mxCell>
        <mxCell id="-s76jAeznodHaaLhFz4p-82" value="" style="endArrow=classic;html=1;rounded=0;exitX=1;exitY=0.5;exitDx=0;exitDy=0;entryX=0;entryY=0.5;entryDx=0;entryDy=0;" parent="1" source="-s76jAeznodHaaLhFz4p-80" target="-s76jAeznodHaaLhFz4p-81" edge="1">
          <mxGeometry width="50" height="50" relative="1" as="geometry">
            <mxPoint x="170" y="520" as="sourcePoint" />
            <mxPoint x="220" y="470" as="targetPoint" />
          </mxGeometry>
        </mxCell>
        <mxCell id="-s76jAeznodHaaLhFz4p-83" value="" style="endArrow=classic;html=1;rounded=0;entryX=0;entryY=0.5;entryDx=0;entryDy=0;" parent="1" target="-s76jAeznodHaaLhFz4p-19" edge="1">
          <mxGeometry width="50" height="50" relative="1" as="geometry">
            <mxPoint x="-430" y="520" as="sourcePoint" />
            <mxPoint x="-350" y="511.5" as="targetPoint" />
          </mxGeometry>
        </mxCell>
        <mxCell id="-s76jAeznodHaaLhFz4p-84" value="PROGRAM" style="rounded=0;whiteSpace=wrap;html=1;" parent="1" vertex="1">
          <mxGeometry x="6" y="490" width="120" height="60" as="geometry" />
        </mxCell>
        <mxCell id="-s76jAeznodHaaLhFz4p-85" value="\n" style="ellipse;whiteSpace=wrap;html=1;" parent="1" vertex="1">
          <mxGeometry x="550" y="1256.5" width="90" height="66" as="geometry" />
        </mxCell>
        <mxCell id="-s76jAeznodHaaLhFz4p-86" value="Radio_on" style="ellipse;whiteSpace=wrap;html=1;" parent="1" vertex="1">
          <mxGeometry x="680" y="1254.5" width="100" height="70" as="geometry" />
        </mxCell>
        <mxCell id="-s76jAeznodHaaLhFz4p-87" value="" style="endArrow=classic;html=1;rounded=0;exitX=1;exitY=0.5;exitDx=0;exitDy=0;" parent="1" source="-s76jAeznodHaaLhFz4p-23" edge="1">
          <mxGeometry width="50" height="50" relative="1" as="geometry">
            <mxPoint x="542" y="1436" as="sourcePoint" />
            <mxPoint x="440" y="1290" as="targetPoint" />
          </mxGeometry>
        </mxCell>
        <mxCell id="-s76jAeznodHaaLhFz4p-88" value="" style="endArrow=classic;html=1;rounded=0;exitX=1;exitY=0.5;exitDx=0;exitDy=0;entryX=0;entryY=0.5;entryDx=0;entryDy=0;" parent="1" source="-s76jAeznodHaaLhFz4p-85" target="-s76jAeznodHaaLhFz4p-86" edge="1">
          <mxGeometry width="50" height="50" relative="1" as="geometry">
            <mxPoint x="724" y="1386.5" as="sourcePoint" />
            <mxPoint x="774" y="1336.5" as="targetPoint" />
          </mxGeometry>
        </mxCell>
        <mxCell id="-s76jAeznodHaaLhFz4p-89" value="" style="endArrow=classic;html=1;rounded=0;exitX=1;exitY=0.5;exitDx=0;exitDy=0;" parent="1" source="-s76jAeznodHaaLhFz4p-86" edge="1">
          <mxGeometry width="50" height="50" relative="1" as="geometry">
            <mxPoint x="944" y="1316.5" as="sourcePoint" />
            <mxPoint x="840" y="1290" as="targetPoint" />
          </mxGeometry>
        </mxCell>
        <mxCell id="-s76jAeznodHaaLhFz4p-90" value="" style="endArrow=classic;html=1;rounded=0;exitX=1;exitY=0.5;exitDx=0;exitDy=0;entryX=0;entryY=0.5;entryDx=0;entryDy=0;" parent="1" source="-s76jAeznodHaaLhFz4p-84" target="-s76jAeznodHaaLhFz4p-91" edge="1">
          <mxGeometry width="50" height="50" relative="1" as="geometry">
            <mxPoint x="270" y="533" as="sourcePoint" />
            <mxPoint x="210" y="520" as="targetPoint" />
          </mxGeometry>
        </mxCell>
        <mxCell id="-s76jAeznodHaaLhFz4p-91" value="Radio_off" style="ellipse;whiteSpace=wrap;html=1;" parent="1" vertex="1">
          <mxGeometry x="200" y="480" width="120" height="80" as="geometry" />
        </mxCell>
        <mxCell id="-s76jAeznodHaaLhFz4p-93" value="" style="endArrow=classic;html=1;rounded=0;exitX=1;exitY=0.5;exitDx=0;exitDy=0;entryX=0;entryY=0.5;entryDx=0;entryDy=0;" parent="1" source="-s76jAeznodHaaLhFz4p-67" target="-s76jAeznodHaaLhFz4p-84" edge="1">
          <mxGeometry width="50" height="50" relative="1" as="geometry">
            <mxPoint x="50" y="643" as="sourcePoint" />
            <mxPoint x="100" y="593" as="targetPoint" />
          </mxGeometry>
        </mxCell>
        <mxCell id="-s76jAeznodHaaLhFz4p-94" value="PROGRAM" style="rounded=0;whiteSpace=wrap;html=1;" parent="1" vertex="1">
          <mxGeometry x="-144" y="736.5" width="120" height="60" as="geometry" />
        </mxCell>
        <mxCell id="-s76jAeznodHaaLhFz4p-95" value="Copy!" style="ellipse;whiteSpace=wrap;html=1;" parent="1" vertex="1">
          <mxGeometry x="196" y="592" width="120" height="80" as="geometry" />
        </mxCell>
        <mxCell id="-s76jAeznodHaaLhFz4p-97" value="" style="endArrow=classic;html=1;rounded=0;entryX=-0.018;entryY=0.331;entryDx=0;entryDy=0;entryPerimeter=0;" parent="1" target="b4CzyY3gaDAT03zvZMXL-89" edge="1">
          <mxGeometry width="50" height="50" relative="1" as="geometry">
            <mxPoint x="-415" y="1614" as="sourcePoint" />
            <mxPoint x="-255" y="1614" as="targetPoint" />
            <Array as="points">
              <mxPoint x="-415" y="1614" />
            </Array>
          </mxGeometry>
        </mxCell>
        <mxCell id="-s76jAeznodHaaLhFz4p-98" value="" style="endArrow=classic;html=1;rounded=0;exitX=0.998;exitY=0.463;exitDx=0;exitDy=0;entryX=-0.006;entryY=0.432;entryDx=0;entryDy=0;entryPerimeter=0;exitPerimeter=0;" parent="1" source="-s76jAeznodHaaLhFz4p-40" target="-s76jAeznodHaaLhFz4p-41" edge="1">
          <mxGeometry width="50" height="50" relative="1" as="geometry">
            <mxPoint x="175" y="1894" as="sourcePoint" />
            <mxPoint x="155" y="1702" as="targetPoint" />
          </mxGeometry>
        </mxCell>
        <mxCell id="-s76jAeznodHaaLhFz4p-101" value="no_response &amp;gt;&amp;gt;" style="ellipse;whiteSpace=wrap;html=1;" parent="1" vertex="1">
          <mxGeometry x="-290" y="731.5" width="100" height="70" as="geometry" />
        </mxCell>
        <mxCell id="-s76jAeznodHaaLhFz4p-102" value="PROGRAM" style="rounded=0;whiteSpace=wrap;html=1;" parent="1" vertex="1">
          <mxGeometry x="6" y="602" width="120" height="60" as="geometry" />
        </mxCell>
        <mxCell id="-s76jAeznodHaaLhFz4p-103" value="Copy!" style="ellipse;whiteSpace=wrap;html=1;" parent="1" vertex="1">
          <mxGeometry x="39" y="731.5" width="110" height="70" as="geometry" />
        </mxCell>
        <mxCell id="-s76jAeznodHaaLhFz4p-104" value="" style="endArrow=classic;html=1;rounded=0;exitX=1;exitY=0.5;exitDx=0;exitDy=0;entryX=0;entryY=0.5;entryDx=0;entryDy=0;" parent="1" source="-s76jAeznodHaaLhFz4p-68" target="-s76jAeznodHaaLhFz4p-102" edge="1">
          <mxGeometry width="50" height="50" relative="1" as="geometry">
            <mxPoint x="10" y="722.5" as="sourcePoint" />
            <mxPoint x="60" y="672.5" as="targetPoint" />
          </mxGeometry>
        </mxCell>
        <mxCell id="-s76jAeznodHaaLhFz4p-105" value="" style="endArrow=classic;html=1;rounded=0;exitX=1;exitY=0.5;exitDx=0;exitDy=0;entryX=0;entryY=0.5;entryDx=0;entryDy=0;" parent="1" source="-s76jAeznodHaaLhFz4p-102" target="-s76jAeznodHaaLhFz4p-95" edge="1">
          <mxGeometry width="50" height="50" relative="1" as="geometry">
            <mxPoint x="210" y="772.5" as="sourcePoint" />
            <mxPoint x="260" y="722.5" as="targetPoint" />
          </mxGeometry>
        </mxCell>
        <mxCell id="-s76jAeznodHaaLhFz4p-108" value="" style="endArrow=classic;html=1;rounded=0;exitX=1;exitY=0.5;exitDx=0;exitDy=0;entryX=0;entryY=0.5;entryDx=0;entryDy=0;" parent="1" source="-s76jAeznodHaaLhFz4p-66" target="-s76jAeznodHaaLhFz4p-80" edge="1">
          <mxGeometry width="50" height="50" relative="1" as="geometry">
            <mxPoint x="440" y="430" as="sourcePoint" />
            <mxPoint x="490" y="380" as="targetPoint" />
          </mxGeometry>
        </mxCell>
        <mxCell id="-s76jAeznodHaaLhFz4p-110" value="" style="endArrow=classic;html=1;rounded=0;entryX=0.5;entryY=0;entryDx=0;entryDy=0;" parent="1" target="8ygw2xqHuKe9CShxlt0k-1" edge="1">
          <mxGeometry width="50" height="50" relative="1" as="geometry">
            <mxPoint x="330" y="632" as="sourcePoint" />
            <mxPoint x="-390" y="810" as="targetPoint" />
            <Array as="points">
              <mxPoint x="330" y="700" />
              <mxPoint x="256" y="700" />
              <mxPoint x="-390" y="700" />
            </Array>
          </mxGeometry>
        </mxCell>
        <mxCell id="-s76jAeznodHaaLhFz4p-111" value="" style="endArrow=classic;html=1;rounded=0;exitX=1;exitY=0.5;exitDx=0;exitDy=0;entryX=0;entryY=0.5;entryDx=0;entryDy=0;" parent="1" source="-s76jAeznodHaaLhFz4p-101" target="-s76jAeznodHaaLhFz4p-94" edge="1">
          <mxGeometry width="50" height="50" relative="1" as="geometry">
            <mxPoint x="-190" y="911.5" as="sourcePoint" />
            <mxPoint x="-140" y="861.5" as="targetPoint" />
          </mxGeometry>
        </mxCell>
        <mxCell id="-s76jAeznodHaaLhFz4p-112" value="" style="endArrow=classic;html=1;rounded=0;exitX=1;exitY=0.5;exitDx=0;exitDy=0;entryX=0;entryY=0.5;entryDx=0;entryDy=0;" parent="1" source="-s76jAeznodHaaLhFz4p-94" target="-s76jAeznodHaaLhFz4p-103" edge="1">
          <mxGeometry width="50" height="50" relative="1" as="geometry">
            <mxPoint x="30" y="911.5" as="sourcePoint" />
            <mxPoint x="80" y="861.5" as="targetPoint" />
          </mxGeometry>
        </mxCell>
        <mxCell id="-s76jAeznodHaaLhFz4p-114" value="-Copy!" style="ellipse;whiteSpace=wrap;html=1;" parent="1" vertex="1">
          <mxGeometry x="180" y="841" width="110" height="70" as="geometry" />
        </mxCell>
        <mxCell id="-s76jAeznodHaaLhFz4p-115" value="" style="endArrow=classic;html=1;rounded=0;exitX=1;exitY=0.5;exitDx=0;exitDy=0;entryX=0;entryY=0.5;entryDx=0;entryDy=0;" parent="1" source="-s76jAeznodHaaLhFz4p-69" target="-s76jAeznodHaaLhFz4p-114" edge="1">
          <mxGeometry width="50" height="50" relative="1" as="geometry">
            <mxPoint x="-35" y="1030" as="sourcePoint" />
            <mxPoint x="15" y="980" as="targetPoint" />
          </mxGeometry>
        </mxCell>
        <mxCell id="-s76jAeznodHaaLhFz4p-117" value="" style="endArrow=classic;html=1;rounded=0;entryX=0;entryY=0.5;entryDx=0;entryDy=0;" parent="1" target="-s76jAeznodHaaLhFz4p-51" edge="1">
          <mxGeometry width="50" height="50" relative="1" as="geometry">
            <mxPoint x="-430" y="876" as="sourcePoint" />
            <mxPoint x="-370" y="1071.5" as="targetPoint" />
          </mxGeometry>
        </mxCell>
        <mxCell id="-s76jAeznodHaaLhFz4p-118" value="" style="endArrow=classic;html=1;rounded=0;entryX=0;entryY=0.5;entryDx=0;entryDy=0;" parent="1" target="-s76jAeznodHaaLhFz4p-31" edge="1">
          <mxGeometry width="50" height="50" relative="1" as="geometry">
            <mxPoint x="-430" y="632" as="sourcePoint" />
            <mxPoint x="-330" y="741.5" as="targetPoint" />
          </mxGeometry>
        </mxCell>
        <mxCell id="-s76jAeznodHaaLhFz4p-119" value="" style="endArrow=classic;html=1;rounded=0;exitX=1;exitY=0.5;exitDx=0;exitDy=0;entryX=0;entryY=0.5;entryDx=0;entryDy=0;" parent="1" target="-s76jAeznodHaaLhFz4p-64" edge="1">
          <mxGeometry width="50" height="50" relative="1" as="geometry">
            <mxPoint x="-300" y="270" as="sourcePoint" />
            <mxPoint x="-180" y="340" as="targetPoint" />
          </mxGeometry>
        </mxCell>
        <mxCell id="-s76jAeznodHaaLhFz4p-120" style="edgeStyle=orthogonalEdgeStyle;rounded=0;orthogonalLoop=1;jettySize=auto;html=1;exitX=0.5;exitY=1;exitDx=0;exitDy=0;" parent="1" source="-s76jAeznodHaaLhFz4p-65" target="-s76jAeznodHaaLhFz4p-65" edge="1">
          <mxGeometry relative="1" as="geometry" />
        </mxCell>
        <mxCell id="-s76jAeznodHaaLhFz4p-121" value="" style="endArrow=classic;html=1;rounded=0;entryX=0;entryY=0.5;entryDx=0;entryDy=0;" parent="1" target="-s76jAeznodHaaLhFz4p-65" edge="1">
          <mxGeometry width="50" height="50" relative="1" as="geometry">
            <mxPoint x="-20" y="270" as="sourcePoint" />
            <mxPoint x="-90" y="320" as="targetPoint" />
          </mxGeometry>
        </mxCell>
        <mxCell id="-s76jAeznodHaaLhFz4p-122" value="" style="endArrow=classic;html=1;rounded=0;exitX=1;exitY=0.5;exitDx=0;exitDy=0;" parent="1" source="-s76jAeznodHaaLhFz4p-65" edge="1">
          <mxGeometry width="50" height="50" relative="1" as="geometry">
            <mxPoint x="50" y="380" as="sourcePoint" />
            <mxPoint x="390" y="270" as="targetPoint" />
          </mxGeometry>
        </mxCell>
        <mxCell id="-s76jAeznodHaaLhFz4p-123" value="" style="endArrow=classic;html=1;rounded=0;exitX=1;exitY=0.5;exitDx=0;exitDy=0;" parent="1" source="-s76jAeznodHaaLhFz4p-73" edge="1">
          <mxGeometry width="50" height="50" relative="1" as="geometry">
            <mxPoint x="370" y="350" as="sourcePoint" />
            <mxPoint x="490" y="270" as="targetPoint" />
          </mxGeometry>
        </mxCell>
        <mxCell id="-s76jAeznodHaaLhFz4p-124" value="" style="endArrow=none;html=1;rounded=0;" parent="1" edge="1">
          <mxGeometry width="50" height="50" relative="1" as="geometry">
            <mxPoint x="370" y="980" as="sourcePoint" />
            <mxPoint x="370" y="270" as="targetPoint" />
          </mxGeometry>
        </mxCell>
        <mxCell id="-s76jAeznodHaaLhFz4p-129" value="" style="endArrow=none;html=1;rounded=0;" parent="1" edge="1">
          <mxGeometry width="50" height="50" relative="1" as="geometry">
            <mxPoint x="-430" y="980" as="sourcePoint" />
            <mxPoint x="370" y="980" as="targetPoint" />
          </mxGeometry>
        </mxCell>
        <mxCell id="-s76jAeznodHaaLhFz4p-130" value="" style="endArrow=classic;html=1;rounded=0;entryX=0.005;entryY=0.544;entryDx=0;entryDy=0;entryPerimeter=0;" parent="1" target="-s76jAeznodHaaLhFz4p-34" edge="1">
          <mxGeometry width="50" height="50" relative="1" as="geometry">
            <mxPoint x="1159" y="166.5" as="sourcePoint" />
            <mxPoint x="1179" y="146.5" as="targetPoint" />
          </mxGeometry>
        </mxCell>
        <mxCell id="-s76jAeznodHaaLhFz4p-131" value="" style="endArrow=none;html=1;rounded=0;" parent="1" edge="1">
          <mxGeometry width="50" height="50" relative="1" as="geometry">
            <mxPoint x="-430" y="980" as="sourcePoint" />
            <mxPoint x="-430" y="270" as="targetPoint" />
          </mxGeometry>
        </mxCell>
        <mxCell id="-s76jAeznodHaaLhFz4p-132" value="" style="endArrow=classic;html=1;rounded=0;entryX=0;entryY=0.5;entryDx=0;entryDy=0;" parent="1" target="-s76jAeznodHaaLhFz4p-35" edge="1">
          <mxGeometry width="50" height="50" relative="1" as="geometry">
            <mxPoint x="1159" y="243.5" as="sourcePoint" />
            <mxPoint x="1179" y="226.5" as="targetPoint" />
          </mxGeometry>
        </mxCell>
        <mxCell id="-s76jAeznodHaaLhFz4p-135" value="" style="endArrow=classic;html=1;rounded=0;entryX=0;entryY=0.5;entryDx=0;entryDy=0;" parent="1" target="-s76jAeznodHaaLhFz4p-38" edge="1">
          <mxGeometry width="50" height="50" relative="1" as="geometry">
            <mxPoint x="1161" y="320.5" as="sourcePoint" />
            <mxPoint x="1161" y="273.5" as="targetPoint" />
          </mxGeometry>
        </mxCell>
        <mxCell id="-s76jAeznodHaaLhFz4p-137" value="" style="endArrow=none;html=1;rounded=0;" parent="1" edge="1">
          <mxGeometry width="50" height="50" relative="1" as="geometry">
            <mxPoint x="1159" y="406.5" as="sourcePoint" />
            <mxPoint x="1159" y="166.5" as="targetPoint" />
          </mxGeometry>
        </mxCell>
        <mxCell id="-s76jAeznodHaaLhFz4p-138" value="" style="endArrow=classic;html=1;rounded=0;exitX=1;exitY=0.5;exitDx=0;exitDy=0;" parent="1" source="-s76jAeznodHaaLhFz4p-34" edge="1">
          <mxGeometry width="50" height="50" relative="1" as="geometry">
            <mxPoint x="1499" y="206.5" as="sourcePoint" />
            <mxPoint x="1519" y="163.5" as="targetPoint" />
          </mxGeometry>
        </mxCell>
        <mxCell id="-s76jAeznodHaaLhFz4p-139" value="" style="endArrow=none;html=1;rounded=0;exitX=1;exitY=0.5;exitDx=0;exitDy=0;" parent="1" source="-s76jAeznodHaaLhFz4p-35" edge="1">
          <mxGeometry width="50" height="50" relative="1" as="geometry">
            <mxPoint x="1419" y="316.5" as="sourcePoint" />
            <mxPoint x="1449" y="243.5" as="targetPoint" />
          </mxGeometry>
        </mxCell>
        <mxCell id="-s76jAeznodHaaLhFz4p-142" value="" style="endArrow=none;html=1;rounded=0;exitX=1;exitY=0.5;exitDx=0;exitDy=0;" parent="1" source="-s76jAeznodHaaLhFz4p-38" edge="1">
          <mxGeometry width="50" height="50" relative="1" as="geometry">
            <mxPoint x="1411" y="333.5" as="sourcePoint" />
            <mxPoint x="1451" y="320.5" as="targetPoint" />
          </mxGeometry>
        </mxCell>
        <mxCell id="-s76jAeznodHaaLhFz4p-144" value="" style="endArrow=none;html=1;rounded=0;" parent="1" edge="1">
          <mxGeometry width="50" height="50" relative="1" as="geometry">
            <mxPoint x="1449" y="406.5" as="sourcePoint" />
            <mxPoint x="1449" y="166.5" as="targetPoint" />
          </mxGeometry>
        </mxCell>
        <mxCell id="-s76jAeznodHaaLhFz4p-145" value="" style="endArrow=none;html=1;rounded=0;" parent="1" edge="1">
          <mxGeometry width="50" height="50" relative="1" as="geometry">
            <mxPoint x="1109" y="166.5" as="sourcePoint" />
            <mxPoint x="1159" y="166.5" as="targetPoint" />
          </mxGeometry>
        </mxCell>
        <mxCell id="-s76jAeznodHaaLhFz4p-146" value="&lt;b&gt;VALUE&lt;/b&gt;" style="text;html=1;strokeColor=none;fillColor=none;align=center;verticalAlign=middle;whiteSpace=wrap;rounded=0;" parent="1" vertex="1">
          <mxGeometry x="1041" y="146.5" width="60" height="30" as="geometry" />
        </mxCell>
        <mxCell id="-s76jAeznodHaaLhFz4p-187" value="&lt;div style=&quot;color: rgb(174, 178, 178); background-color: rgb(17, 20, 24); font-family: Consolas, &amp;quot;Courier New&amp;quot;, monospace; font-size: 14px; line-height: 19px;&quot;&gt;&lt;div&gt;&lt;span style=&quot;color: #dc5574;&quot;&gt;LETTER&lt;/span&gt; &lt;span style=&quot;color: #c4a046;&quot;&gt;=&lt;/span&gt; (&lt;span style=&quot;color: #dc5574;&quot;&gt;A&lt;/span&gt;, &lt;span style=&quot;color: #dc5574;&quot;&gt;B&lt;/span&gt;, &lt;span style=&quot;color: #dc5574;&quot;&gt;C&lt;/span&gt;, &lt;span style=&quot;color: #dc5574;&quot;&gt;D&lt;/span&gt;, &lt;span style=&quot;color: #dc5574;&quot;&gt;E&lt;/span&gt;, &lt;span style=&quot;color: #dc5574;&quot;&gt;F&lt;/span&gt;, &lt;span style=&quot;color: #dc5574;&quot;&gt;G&lt;/span&gt;, &lt;span style=&quot;color: #dc5574;&quot;&gt;H&lt;/span&gt;, &lt;span style=&quot;color: #dc5574;&quot;&gt;I&lt;/span&gt;, &lt;span style=&quot;color: #dc5574;&quot;&gt;J&lt;/span&gt;, &lt;span style=&quot;color: #dc5574;&quot;&gt;K&lt;/span&gt;, &lt;span style=&quot;color: #dc5574;&quot;&gt;L&lt;/span&gt;, &lt;span style=&quot;color: #dc5574;&quot;&gt;M&lt;/span&gt;, &lt;span style=&quot;color: #dc5574;&quot;&gt;N&lt;/span&gt;, &lt;span style=&quot;color: #dc5574;&quot;&gt;O&lt;/span&gt;, &lt;span style=&quot;color: #dc5574;&quot;&gt;P&lt;/span&gt;, &lt;span style=&quot;color: #dc5574;&quot;&gt;Q&lt;/span&gt;, &lt;span style=&quot;color: #dc5574;&quot;&gt;R&lt;/span&gt;, &lt;span style=&quot;color: #dc5574;&quot;&gt;S&lt;/span&gt;, &lt;span style=&quot;color: #dc5574;&quot;&gt;T&lt;/span&gt;, &lt;span style=&quot;color: #dc5574;&quot;&gt;U&lt;/span&gt;, &lt;span style=&quot;color: #dc5574;&quot;&gt;V&lt;/span&gt;, &lt;span style=&quot;color: #dc5574;&quot;&gt;W&lt;/span&gt;, &lt;span style=&quot;color: #dc5574;&quot;&gt;X&lt;/span&gt;, &lt;span style=&quot;color: #dc5574;&quot;&gt;Y&lt;/span&gt;, &lt;span style=&quot;color: #dc5574;&quot;&gt;Z&lt;/span&gt;, &lt;/div&gt;&lt;div&gt;&lt;span style=&quot;color: #dc5574;&quot;&gt;a&lt;/span&gt;, &lt;span style=&quot;color: #dc5574;&quot;&gt;b&lt;/span&gt;, &lt;span style=&quot;color: #dc5574;&quot;&gt;c&lt;/span&gt;, &lt;span style=&quot;color: #dc5574;&quot;&gt;d&lt;/span&gt;, &lt;span style=&quot;color: #dc5574;&quot;&gt;e&lt;/span&gt;, &lt;span style=&quot;color: #dc5574;&quot;&gt;f&lt;/span&gt;, &lt;span style=&quot;color: #dc5574;&quot;&gt;g&lt;/span&gt;, &lt;span style=&quot;color: #dc5574;&quot;&gt;h&lt;/span&gt;, &lt;span style=&quot;color: #dc5574;&quot;&gt;i&lt;/span&gt;, &lt;span style=&quot;color: #dc5574;&quot;&gt;j&lt;/span&gt;, &lt;span style=&quot;color: #dc5574;&quot;&gt;k&lt;/span&gt;, &lt;span style=&quot;color: #dc5574;&quot;&gt;l&lt;/span&gt;, &lt;span style=&quot;color: #dc5574;&quot;&gt;m&lt;/span&gt;, &lt;span style=&quot;color: #dc5574;&quot;&gt;n&lt;/span&gt;, &lt;span style=&quot;color: #dc5574;&quot;&gt;o&lt;/span&gt;, &lt;span style=&quot;color: #dc5574;&quot;&gt;p&lt;/span&gt;, &lt;span style=&quot;color: #dc5574;&quot;&gt;q&lt;/span&gt;, &lt;span style=&quot;color: #dc5574;&quot;&gt;r&lt;/span&gt;, &lt;span style=&quot;color: #dc5574;&quot;&gt;s&lt;/span&gt;, &lt;span style=&quot;color: #dc5574;&quot;&gt;t&lt;/span&gt;, &lt;span style=&quot;color: #dc5574;&quot;&gt;u&lt;/span&gt;, &lt;span style=&quot;color: #dc5574;&quot;&gt;v&lt;/span&gt;, &lt;span style=&quot;color: #dc5574;&quot;&gt;w&lt;/span&gt;, &lt;span style=&quot;color: #dc5574;&quot;&gt;x&lt;/span&gt;, &lt;span style=&quot;color: #dc5574;&quot;&gt;y&lt;/span&gt;, &lt;span style=&quot;color: #dc5574;&quot;&gt;z&lt;/span&gt;)&lt;/div&gt;&lt;/div&gt;" style="text;html=1;strokeColor=none;fillColor=none;align=center;verticalAlign=middle;whiteSpace=wrap;rounded=0;" parent="1" vertex="1">
          <mxGeometry x="640" y="376.5" width="250" height="100" as="geometry" />
        </mxCell>
        <mxCell id="-s76jAeznodHaaLhFz4p-188" value="&lt;div style=&quot;color: rgb(174, 178, 178); background-color: rgb(17, 20, 24); font-family: Consolas, &amp;quot;Courier New&amp;quot;, monospace; font-size: 14px; line-height: 19px;&quot;&gt;&lt;span style=&quot;color: #dc5574;&quot;&gt;NUMBER&lt;/span&gt; &lt;span style=&quot;color: #c4a046;&quot;&gt;=&lt;/span&gt; (&lt;span style=&quot;color: #d17f2d;&quot;&gt;1&lt;/span&gt;, &lt;span style=&quot;color: #d17f2d;&quot;&gt;2&lt;/span&gt;, &lt;span style=&quot;color: #d17f2d;&quot;&gt;3&lt;/span&gt;, &lt;span style=&quot;color: #d17f2d;&quot;&gt;4&lt;/span&gt;, &lt;span style=&quot;color: #d17f2d;&quot;&gt;5&lt;/span&gt;, &lt;span style=&quot;color: #d17f2d;&quot;&gt;6&lt;/span&gt;, &lt;span style=&quot;color: #d17f2d;&quot;&gt;7&lt;/span&gt;, &lt;span style=&quot;color: #d17f2d;&quot;&gt;8&lt;/span&gt;, &lt;span style=&quot;color: #d17f2d;&quot;&gt;9&lt;/span&gt;, &lt;span style=&quot;color: #d17f2d;&quot;&gt;0&lt;/span&gt;)&lt;/div&gt;" style="text;html=1;strokeColor=none;fillColor=none;align=center;verticalAlign=middle;whiteSpace=wrap;rounded=0;" parent="1" vertex="1">
          <mxGeometry x="660" y="496.5" width="210" height="70" as="geometry" />
        </mxCell>
        <mxCell id="-s76jAeznodHaaLhFz4p-190" value="&lt;div style=&quot;color: rgb(174, 178, 178); background-color: rgb(17, 20, 24); font-family: Consolas, &amp;quot;Courier New&amp;quot;, monospace; font-size: 14px; line-height: 19px;&quot;&gt;&lt;span style=&quot;color: #dc5574;&quot;&gt;TYRE_TYPE&lt;/span&gt; &lt;span style=&quot;color: #c4a046;&quot;&gt;=&lt;/span&gt; (&lt;span style=&quot;color: #2fbe85;&quot;&gt;&quot;soft&quot; &lt;/span&gt;| &lt;span style=&quot;color: #2fbe85;&quot;&gt;&quot;medium&quot; &lt;/span&gt;| &lt;span style=&quot;color: #2fbe85;&quot;&gt;&quot;hard&quot; &lt;/span&gt;)&lt;/div&gt;" style="text;html=1;strokeColor=none;fillColor=none;align=center;verticalAlign=middle;whiteSpace=wrap;rounded=0;" parent="1" vertex="1">
          <mxGeometry x="660" y="556" width="210" height="70" as="geometry" />
        </mxCell>
        <mxCell id="-s76jAeznodHaaLhFz4p-191" value="&lt;div style=&quot;color: rgb(174, 178, 178); background-color: rgb(17, 20, 24); font-family: Consolas, &amp;quot;Courier New&amp;quot;, monospace; font-size: 14px; line-height: 19px;&quot;&gt;&lt;span style=&quot;color: #dc5574;&quot;&gt;TYRE_STATUS&lt;/span&gt; &lt;span style=&quot;color: #c4a046;&quot;&gt;=&lt;/span&gt; (&lt;span style=&quot;color: #2fbe85;&quot;&gt;&quot;fresh&quot; &lt;/span&gt;| &lt;span style=&quot;color: #2fbe85;&quot;&gt;&quot;used&quot;&lt;/span&gt;)&lt;/div&gt;" style="text;html=1;strokeColor=none;fillColor=none;align=center;verticalAlign=middle;whiteSpace=wrap;rounded=0;" parent="1" vertex="1">
          <mxGeometry x="660" y="626" width="210" height="70" as="geometry" />
        </mxCell>
        <mxCell id="-s76jAeznodHaaLhFz4p-192" value="{" style="ellipse;whiteSpace=wrap;html=1;" parent="1" vertex="1">
          <mxGeometry x="1005" y="1945" width="90" height="70" as="geometry" />
        </mxCell>
        <mxCell id="-s76jAeznodHaaLhFz4p-197" value="TYRE_TYPE" style="ellipse;whiteSpace=wrap;html=1;fontFamily=Helvetica;fontSize=11;fontColor=#000000;" parent="1" vertex="1">
          <mxGeometry x="1140" y="1940" width="120" height="80" as="geometry" />
        </mxCell>
        <mxCell id="-s76jAeznodHaaLhFz4p-198" value="," style="ellipse;whiteSpace=wrap;html=1;" parent="1" vertex="1">
          <mxGeometry x="1300" y="1945" width="100" height="70" as="geometry" />
        </mxCell>
        <mxCell id="-s76jAeznodHaaLhFz4p-199" value="TYRE_STATUS" style="ellipse;whiteSpace=wrap;html=1;fontFamily=Helvetica;fontSize=11;fontColor=#000000;" parent="1" vertex="1">
          <mxGeometry x="1442.5" y="1938.5" width="120" height="80" as="geometry" />
        </mxCell>
        <mxCell id="-s76jAeznodHaaLhFz4p-200" value="}" style="ellipse;whiteSpace=wrap;html=1;" parent="1" vertex="1">
          <mxGeometry x="1600" y="1945" width="90" height="70" as="geometry" />
        </mxCell>
        <mxCell id="-s76jAeznodHaaLhFz4p-201" value="" style="endArrow=classic;html=1;rounded=0;fontFamily=Helvetica;fontSize=11;fontColor=#000000;exitX=1;exitY=0.5;exitDx=0;exitDy=0;entryX=0;entryY=0.5;entryDx=0;entryDy=0;" parent="1" source="-s76jAeznodHaaLhFz4p-192" target="-s76jAeznodHaaLhFz4p-197" edge="1">
          <mxGeometry width="50" height="50" relative="1" as="geometry">
            <mxPoint x="1110" y="2097" as="sourcePoint" />
            <mxPoint x="1160" y="2047" as="targetPoint" />
          </mxGeometry>
        </mxCell>
        <mxCell id="-s76jAeznodHaaLhFz4p-202" value="" style="endArrow=classic;html=1;rounded=0;fontFamily=Helvetica;fontSize=11;fontColor=#000000;exitX=1;exitY=0.5;exitDx=0;exitDy=0;entryX=0;entryY=0.5;entryDx=0;entryDy=0;" parent="1" source="-s76jAeznodHaaLhFz4p-197" target="-s76jAeznodHaaLhFz4p-198" edge="1">
          <mxGeometry width="50" height="50" relative="1" as="geometry">
            <mxPoint x="1270" y="2127" as="sourcePoint" />
            <mxPoint x="1320" y="2077" as="targetPoint" />
          </mxGeometry>
        </mxCell>
        <mxCell id="-s76jAeznodHaaLhFz4p-203" value="" style="endArrow=classic;html=1;rounded=0;fontFamily=Helvetica;fontSize=11;fontColor=#000000;exitX=1;exitY=0.5;exitDx=0;exitDy=0;entryX=0;entryY=0.5;entryDx=0;entryDy=0;" parent="1" source="-s76jAeznodHaaLhFz4p-198" target="-s76jAeznodHaaLhFz4p-199" edge="1">
          <mxGeometry width="50" height="50" relative="1" as="geometry">
            <mxPoint x="1430" y="2107" as="sourcePoint" />
            <mxPoint x="1480" y="2057" as="targetPoint" />
          </mxGeometry>
        </mxCell>
        <mxCell id="-s76jAeznodHaaLhFz4p-204" value="" style="endArrow=classic;html=1;rounded=0;fontFamily=Helvetica;fontSize=11;fontColor=#000000;exitX=1;exitY=0.5;exitDx=0;exitDy=0;entryX=0;entryY=0.5;entryDx=0;entryDy=0;" parent="1" source="-s76jAeznodHaaLhFz4p-199" target="-s76jAeznodHaaLhFz4p-200" edge="1">
          <mxGeometry width="50" height="50" relative="1" as="geometry">
            <mxPoint x="1520" y="2147" as="sourcePoint" />
            <mxPoint x="1570" y="2097" as="targetPoint" />
          </mxGeometry>
        </mxCell>
        <mxCell id="-s76jAeznodHaaLhFz4p-205" value="" style="endArrow=classic;html=1;rounded=0;fontFamily=Helvetica;fontSize=11;fontColor=#000000;entryX=0;entryY=0.5;entryDx=0;entryDy=0;" parent="1" target="-s76jAeznodHaaLhFz4p-192" edge="1">
          <mxGeometry width="50" height="50" relative="1" as="geometry">
            <mxPoint x="900" y="1980" as="sourcePoint" />
            <mxPoint x="950" y="1927" as="targetPoint" />
          </mxGeometry>
        </mxCell>
        <mxCell id="-s76jAeznodHaaLhFz4p-206" value="" style="endArrow=classic;html=1;rounded=0;fontFamily=Helvetica;fontSize=11;fontColor=#000000;exitX=1;exitY=0.5;exitDx=0;exitDy=0;" parent="1" source="-s76jAeznodHaaLhFz4p-200" edge="1">
          <mxGeometry width="50" height="50" relative="1" as="geometry">
            <mxPoint x="1810" y="1997" as="sourcePoint" />
            <mxPoint x="1780" y="1980" as="targetPoint" />
          </mxGeometry>
        </mxCell>
        <mxCell id="-s76jAeznodHaaLhFz4p-207" value="&lt;b&gt;TYRE&lt;/b&gt;" style="text;html=1;strokeColor=none;fillColor=none;align=center;verticalAlign=middle;whiteSpace=wrap;rounded=0;" parent="1" vertex="1">
          <mxGeometry x="870" y="1933.5" width="60" height="30" as="geometry" />
        </mxCell>
        <mxCell id="-s76jAeznodHaaLhFz4p-221" value="" style="endArrow=classic;html=1;rounded=0;fontFamily=Helvetica;fontSize=11;fontColor=#000000;entryX=0;entryY=0.5;entryDx=0;entryDy=0;" parent="1" target="-s76jAeznodHaaLhFz4p-1" edge="1">
          <mxGeometry width="50" height="50" relative="1" as="geometry">
            <mxPoint x="-460" y="110" as="sourcePoint" />
            <mxPoint x="-430" y="70" as="targetPoint" />
          </mxGeometry>
        </mxCell>
        <mxCell id="-s76jAeznodHaaLhFz4p-222" value="&lt;b&gt;STRUCTURE&lt;/b&gt;" style="text;html=1;strokeColor=none;fillColor=none;align=center;verticalAlign=middle;whiteSpace=wrap;rounded=0;fontFamily=Helvetica;fontSize=11;fontColor=#000000;" parent="1" vertex="1">
          <mxGeometry x="-490" y="70" width="60" height="30" as="geometry" />
        </mxCell>
        <mxCell id="-s76jAeznodHaaLhFz4p-227" value="" style="endArrow=classic;html=1;rounded=0;fontFamily=Helvetica;fontSize=11;fontColor=#000000;exitX=1;exitY=0.5;exitDx=0;exitDy=0;" parent="1" source="-s76jAeznodHaaLhFz4p-16" edge="1">
          <mxGeometry width="50" height="50" relative="1" as="geometry">
            <mxPoint x="23" y="1121" as="sourcePoint" />
            <mxPoint x="219" y="1107" as="targetPoint" />
          </mxGeometry>
        </mxCell>
        <mxCell id="-s76jAeznodHaaLhFz4p-228" value="" style="endArrow=classic;html=1;rounded=0;fontFamily=Helvetica;fontSize=11;fontColor=#000000;entryX=0;entryY=0.5;entryDx=0;entryDy=0;" parent="1" source="-s76jAeznodHaaLhFz4p-13" edge="1" target="-s76jAeznodHaaLhFz4p-15">
          <mxGeometry width="50" height="50" relative="1" as="geometry">
            <mxPoint x="-301" y="1155.5" as="sourcePoint" />
            <mxPoint x="-261" y="1106" as="targetPoint" />
          </mxGeometry>
        </mxCell>
        <mxCell id="-s76jAeznodHaaLhFz4p-229" value="" style="endArrow=classic;html=1;rounded=0;fontFamily=Helvetica;fontSize=11;fontColor=#000000;exitX=1;exitY=0.5;exitDx=0;exitDy=0;entryX=0;entryY=0.5;entryDx=0;entryDy=0;" parent="1" source="-s76jAeznodHaaLhFz4p-15" target="8ygw2xqHuKe9CShxlt0k-3" edge="1">
          <mxGeometry width="50" height="50" relative="1" as="geometry">
            <mxPoint x="-87" y="1161" as="sourcePoint" />
            <mxPoint x="-37" y="1111" as="targetPoint" />
          </mxGeometry>
        </mxCell>
        <mxCell id="-s76jAeznodHaaLhFz4p-230" value="&lt;div style=&quot;color: rgb(174, 178, 178); background-color: rgb(17, 20, 24); font-family: Consolas, &amp;quot;Courier New&amp;quot;, monospace; font-size: 14px; line-height: 19px;&quot;&gt;&lt;div&gt;&lt;span style=&quot;color: #dc5574;&quot;&gt;VAR_TYPE&lt;/span&gt; &lt;span style=&quot;color: #c4a046;&quot;&gt;=&lt;/span&gt; (&lt;span style=&quot;color: #2fbe85;&quot;&gt;&quot;driver&quot;&lt;/span&gt;&lt;span style=&quot;color: rgb(47, 190, 133);&quot;&gt;&amp;nbsp;&lt;/span&gt;| &lt;span style=&quot;color: rgb(47, 190, 133);&quot;&gt;&quot;lap&quot; &lt;/span&gt;| &lt;span style=&quot;color: rgb(47, 190, 133);&quot;&gt;&quot;tyre&quot;&lt;/span&gt;)&lt;/div&gt;&lt;/div&gt;" style="text;html=1;strokeColor=none;fillColor=none;align=center;verticalAlign=middle;whiteSpace=wrap;rounded=0;" parent="1" vertex="1">
          <mxGeometry x="660" y="705" width="220" height="70" as="geometry" />
        </mxCell>
        <mxCell id="-s76jAeznodHaaLhFz4p-232" value="LETTER" style="ellipse;whiteSpace=wrap;html=1;fontFamily=Helvetica;fontSize=11;fontColor=#000000;" parent="1" vertex="1">
          <mxGeometry x="1143" y="524.5" width="90" height="73.5" as="geometry" />
        </mxCell>
        <mxCell id="-s76jAeznodHaaLhFz4p-233" value="_" style="ellipse;whiteSpace=wrap;html=1;fontFamily=Helvetica;fontSize=11;fontColor=#000000;" parent="1" vertex="1">
          <mxGeometry x="1143" y="664.5" width="87" height="70" as="geometry" />
        </mxCell>
        <mxCell id="-s76jAeznodHaaLhFz4p-234" value="" style="endArrow=classic;html=1;rounded=0;fontFamily=Helvetica;fontSize=11;fontColor=#000000;entryX=0;entryY=0.5;entryDx=0;entryDy=0;" parent="1" target="-s76jAeznodHaaLhFz4p-232" edge="1">
          <mxGeometry width="50" height="50" relative="1" as="geometry">
            <mxPoint x="1070" y="561.5" as="sourcePoint" />
            <mxPoint x="1080" y="551.5" as="targetPoint" />
          </mxGeometry>
        </mxCell>
        <mxCell id="-s76jAeznodHaaLhFz4p-235" value="" style="endArrow=classic;html=1;rounded=0;fontFamily=Helvetica;fontSize=11;fontColor=#000000;entryX=0;entryY=0.5;entryDx=0;entryDy=0;" parent="1" target="-s76jAeznodHaaLhFz4p-233" edge="1">
          <mxGeometry width="50" height="50" relative="1" as="geometry">
            <mxPoint x="1070" y="699.5" as="sourcePoint" />
            <mxPoint x="1142.9999999999945" y="701.25" as="targetPoint" />
          </mxGeometry>
        </mxCell>
        <mxCell id="-s76jAeznodHaaLhFz4p-236" value="" style="endArrow=classic;html=1;rounded=0;fontFamily=Helvetica;fontSize=11;fontColor=#000000;exitX=1;exitY=0.5;exitDx=0;exitDy=0;entryX=0;entryY=0.5;entryDx=0;entryDy=0;" parent="1" source="-s76jAeznodHaaLhFz4p-232" target="-s76jAeznodHaaLhFz4p-238" edge="1">
          <mxGeometry width="50" height="50" relative="1" as="geometry">
            <mxPoint x="1310" y="611.5" as="sourcePoint" />
            <mxPoint x="1330" y="651.5" as="targetPoint" />
          </mxGeometry>
        </mxCell>
        <mxCell id="-s76jAeznodHaaLhFz4p-237" value="" style="endArrow=none;html=1;rounded=0;fontFamily=Helvetica;fontSize=11;fontColor=#000000;entryX=1;entryY=0.5;entryDx=0;entryDy=0;" parent="1" target="-s76jAeznodHaaLhFz4p-233" edge="1">
          <mxGeometry width="50" height="50" relative="1" as="geometry">
            <mxPoint x="1270" y="561.5" as="sourcePoint" />
            <mxPoint x="1240" y="701.5" as="targetPoint" />
            <Array as="points">
              <mxPoint x="1270" y="699.5" />
            </Array>
          </mxGeometry>
        </mxCell>
        <mxCell id="-s76jAeznodHaaLhFz4p-238" value="LETTER" style="ellipse;whiteSpace=wrap;html=1;fontFamily=Helvetica;fontSize=11;fontColor=#000000;" parent="1" vertex="1">
          <mxGeometry x="1360" y="524.5" width="90" height="73.5" as="geometry" />
        </mxCell>
        <mxCell id="-s76jAeznodHaaLhFz4p-240" value="_" style="ellipse;whiteSpace=wrap;html=1;fontFamily=Helvetica;fontSize=11;fontColor=#000000;" parent="1" vertex="1">
          <mxGeometry x="1360" y="604.5" width="90" height="73.5" as="geometry" />
        </mxCell>
        <mxCell id="-s76jAeznodHaaLhFz4p-241" value="NUMBER" style="ellipse;whiteSpace=wrap;html=1;fontFamily=Helvetica;fontSize=11;fontColor=#000000;" parent="1" vertex="1">
          <mxGeometry x="1360" y="701.5" width="90" height="73.5" as="geometry" />
        </mxCell>
        <mxCell id="-s76jAeznodHaaLhFz4p-242" value="" style="endArrow=classic;html=1;rounded=0;fontFamily=Helvetica;fontSize=11;fontColor=#000000;entryX=0;entryY=0.5;entryDx=0;entryDy=0;" parent="1" target="-s76jAeznodHaaLhFz4p-241" edge="1">
          <mxGeometry width="50" height="50" relative="1" as="geometry">
            <mxPoint x="1305" y="641.5" as="sourcePoint" />
            <mxPoint x="1360" y="723" as="targetPoint" />
            <Array as="points">
              <mxPoint x="1305" y="738.5" />
            </Array>
          </mxGeometry>
        </mxCell>
        <mxCell id="-s76jAeznodHaaLhFz4p-243" value="" style="endArrow=none;html=1;rounded=0;fontFamily=Helvetica;fontSize=11;fontColor=#000000;" parent="1" edge="1">
          <mxGeometry width="50" height="50" relative="1" as="geometry">
            <mxPoint x="1070" y="701.5" as="sourcePoint" />
            <mxPoint x="1070" y="561.5" as="targetPoint" />
          </mxGeometry>
        </mxCell>
        <mxCell id="-s76jAeznodHaaLhFz4p-244" value="" style="endArrow=classic;html=1;rounded=0;fontFamily=Helvetica;fontSize=11;fontColor=#000000;exitX=1;exitY=0.5;exitDx=0;exitDy=0;" parent="1" source="-s76jAeznodHaaLhFz4p-238" edge="1">
          <mxGeometry width="50" height="50" relative="1" as="geometry">
            <mxPoint x="1725" y="1163.5" as="sourcePoint" />
            <mxPoint x="1595" y="561.5" as="targetPoint" />
          </mxGeometry>
        </mxCell>
        <mxCell id="-s76jAeznodHaaLhFz4p-245" value="" style="endArrow=none;html=1;rounded=0;fontFamily=Helvetica;fontSize=11;fontColor=#000000;" parent="1" edge="1">
          <mxGeometry width="50" height="50" relative="1" as="geometry">
            <mxPoint x="1305" y="741.5" as="sourcePoint" />
            <mxPoint x="1530" y="561.5" as="targetPoint" />
            <Array as="points">
              <mxPoint x="1305" y="801.5" />
              <mxPoint x="1530" y="801.5" />
            </Array>
          </mxGeometry>
        </mxCell>
        <mxCell id="-s76jAeznodHaaLhFz4p-247" value="" style="endArrow=none;html=1;rounded=0;fontFamily=Helvetica;fontSize=11;fontColor=#000000;exitX=1;exitY=0.5;exitDx=0;exitDy=0;" parent="1" source="-s76jAeznodHaaLhFz4p-240" edge="1">
          <mxGeometry width="50" height="50" relative="1" as="geometry">
            <mxPoint x="1480" y="691.5" as="sourcePoint" />
            <mxPoint x="1530" y="641.5" as="targetPoint" />
          </mxGeometry>
        </mxCell>
        <mxCell id="-s76jAeznodHaaLhFz4p-248" value="" style="endArrow=none;html=1;rounded=0;fontFamily=Helvetica;fontSize=11;fontColor=#000000;exitX=1;exitY=0.5;exitDx=0;exitDy=0;" parent="1" source="-s76jAeznodHaaLhFz4p-241" edge="1">
          <mxGeometry width="50" height="50" relative="1" as="geometry">
            <mxPoint x="1560" y="761.5" as="sourcePoint" />
            <mxPoint x="1530" y="738.5" as="targetPoint" />
          </mxGeometry>
        </mxCell>
        <mxCell id="-s76jAeznodHaaLhFz4p-249" value="&lt;b&gt;IDENTIFIER&lt;/b&gt;" style="text;html=1;strokeColor=none;fillColor=none;align=center;verticalAlign=middle;whiteSpace=wrap;rounded=0;fontFamily=Helvetica;fontSize=11;fontColor=#000000;" parent="1" vertex="1">
          <mxGeometry x="1030" y="518.5" width="60" height="30" as="geometry" />
        </mxCell>
        <mxCell id="-s76jAeznodHaaLhFz4p-251" value="" style="endArrow=classic;html=1;rounded=0;fontFamily=Helvetica;fontSize=11;fontColor=#000000;exitX=1;exitY=0.5;exitDx=0;exitDy=0;entryX=0;entryY=0.5;entryDx=0;entryDy=0;" parent="1" source="-s76jAeznodHaaLhFz4p-33" target="-s76jAeznodHaaLhFz4p-40" edge="1">
          <mxGeometry width="50" height="50" relative="1" as="geometry">
            <mxPoint x="5" y="1804" as="sourcePoint" />
            <mxPoint x="55" y="1754" as="targetPoint" />
          </mxGeometry>
        </mxCell>
        <mxCell id="-s76jAeznodHaaLhFz4p-252" value="" style="endArrow=classic;html=1;rounded=0;fontFamily=Helvetica;fontSize=11;fontColor=#000000;entryX=0;entryY=0.5;entryDx=0;entryDy=0;" parent="1" target="-s76jAeznodHaaLhFz4p-53" edge="1">
          <mxGeometry width="50" height="50" relative="1" as="geometry">
            <mxPoint x="-238.5" y="1964" as="sourcePoint" />
            <mxPoint x="-148.5" y="2110" as="targetPoint" />
          </mxGeometry>
        </mxCell>
        <mxCell id="-s76jAeznodHaaLhFz4p-253" value="" style="endArrow=classic;html=1;rounded=0;fontFamily=Helvetica;fontSize=11;fontColor=#000000;exitX=1;exitY=0.5;exitDx=0;exitDy=0;" parent="1" source="-s76jAeznodHaaLhFz4p-41" edge="1">
          <mxGeometry width="50" height="50" relative="1" as="geometry">
            <mxPoint x="405" y="1764" as="sourcePoint" />
            <mxPoint x="355" y="1626" as="targetPoint" />
          </mxGeometry>
        </mxCell>
        <mxCell id="-s76jAeznodHaaLhFz4p-254" value="" style="endArrow=classic;html=1;rounded=0;fontFamily=Helvetica;fontSize=11;fontColor=#000000;exitX=1;exitY=0.5;exitDx=0;exitDy=0;" parent="1" source="-s76jAeznodHaaLhFz4p-55" edge="1">
          <mxGeometry width="50" height="50" relative="1" as="geometry">
            <mxPoint x="352.5" y="1986.5" as="sourcePoint" />
            <mxPoint x="266.5" y="1963.75" as="targetPoint" />
          </mxGeometry>
        </mxCell>
        <mxCell id="-s76jAeznodHaaLhFz4p-265" value="OPERACAO" style="rounded=0;whiteSpace=wrap;html=1;" parent="1" vertex="1">
          <mxGeometry x="1260" y="376.5" width="100" height="53" as="geometry" />
        </mxCell>
        <mxCell id="-s76jAeznodHaaLhFz4p-269" value="INT" style="rounded=0;whiteSpace=wrap;html=1;" parent="1" vertex="1">
          <mxGeometry x="1238" y="1312" width="120" height="60" as="geometry" />
        </mxCell>
        <mxCell id="-s76jAeznodHaaLhFz4p-271" value="" style="endArrow=classic;html=1;rounded=0;fontFamily=Helvetica;fontSize=11;fontColor=#000000;exitX=1;exitY=0.5;exitDx=0;exitDy=0;" parent="1" source="-s76jAeznodHaaLhFz4p-269" edge="1">
          <mxGeometry width="50" height="50" relative="1" as="geometry">
            <mxPoint x="1620" y="1370" as="sourcePoint" />
            <mxPoint x="1610" y="1342.5" as="targetPoint" />
          </mxGeometry>
        </mxCell>
        <mxCell id="-s76jAeznodHaaLhFz4p-277" value="" style="endArrow=classic;html=1;rounded=0;fontFamily=Helvetica;fontSize=11;fontColor=#000000;entryX=0;entryY=0.5;entryDx=0;entryDy=0;" parent="1" target="-s76jAeznodHaaLhFz4p-269" edge="1">
          <mxGeometry width="50" height="50" relative="1" as="geometry">
            <mxPoint x="1170" y="1342" as="sourcePoint" />
            <mxPoint x="1235" y="1345" as="targetPoint" />
          </mxGeometry>
        </mxCell>
        <mxCell id="-s76jAeznodHaaLhFz4p-278" value="&lt;b&gt;OPERACAO&lt;/b&gt;" style="text;html=1;strokeColor=none;fillColor=none;align=center;verticalAlign=middle;whiteSpace=wrap;rounded=0;" parent="1" vertex="1">
          <mxGeometry x="1100" y="1300" width="60" height="30" as="geometry" />
        </mxCell>
        <mxCell id="-s76jAeznodHaaLhFz4p-279" value="+" style="ellipse;whiteSpace=wrap;html=1;aspect=fixed;fontFamily=Helvetica;fontSize=11;fontColor=#000000;" parent="1" vertex="1">
          <mxGeometry x="1276" y="1510" width="54" height="54" as="geometry" />
        </mxCell>
        <mxCell id="-s76jAeznodHaaLhFz4p-280" value="-" style="ellipse;whiteSpace=wrap;html=1;aspect=fixed;fontFamily=Helvetica;fontSize=11;fontColor=#000000;" parent="1" vertex="1">
          <mxGeometry x="1276" y="1590.5" width="54" height="54" as="geometry" />
        </mxCell>
        <mxCell id="-s76jAeznodHaaLhFz4p-281" value="" style="endArrow=classic;html=1;rounded=0;fontFamily=Helvetica;fontSize=11;fontColor=#000000;entryX=1;entryY=0.5;entryDx=0;entryDy=0;" parent="1" target="-s76jAeznodHaaLhFz4p-279" edge="1">
          <mxGeometry width="50" height="50" relative="1" as="geometry">
            <mxPoint x="1450" y="1340" as="sourcePoint" />
            <mxPoint x="1435" y="1490" as="targetPoint" />
            <Array as="points">
              <mxPoint x="1450" y="1537" />
            </Array>
          </mxGeometry>
        </mxCell>
        <mxCell id="-s76jAeznodHaaLhFz4p-282" value="" style="endArrow=classic;html=1;rounded=0;fontFamily=Helvetica;fontSize=11;fontColor=#000000;entryX=1;entryY=0.5;entryDx=0;entryDy=0;" parent="1" target="-s76jAeznodHaaLhFz4p-280" edge="1">
          <mxGeometry width="50" height="50" relative="1" as="geometry">
            <mxPoint x="1450" y="1540" as="sourcePoint" />
            <mxPoint x="1505" y="1600" as="targetPoint" />
            <Array as="points">
              <mxPoint x="1450" y="1617" />
            </Array>
          </mxGeometry>
        </mxCell>
        <mxCell id="-s76jAeznodHaaLhFz4p-283" value="" style="endArrow=classic;html=1;rounded=0;fontFamily=Helvetica;fontSize=11;fontColor=#000000;exitX=0;exitY=0.5;exitDx=0;exitDy=0;" parent="1" source="-s76jAeznodHaaLhFz4p-279" edge="1">
          <mxGeometry width="50" height="50" relative="1" as="geometry">
            <mxPoint x="1155" y="1520" as="sourcePoint" />
            <mxPoint x="1175" y="1340" as="targetPoint" />
            <Array as="points">
              <mxPoint x="1175" y="1537" />
            </Array>
          </mxGeometry>
        </mxCell>
        <mxCell id="-s76jAeznodHaaLhFz4p-284" value="" style="endArrow=none;html=1;rounded=0;fontFamily=Helvetica;fontSize=11;fontColor=#000000;" parent="1" edge="1">
          <mxGeometry width="50" height="50" relative="1" as="geometry">
            <mxPoint x="1175" y="1540" as="sourcePoint" />
            <mxPoint x="1275" y="1620" as="targetPoint" />
            <Array as="points">
              <mxPoint x="1175" y="1620" />
            </Array>
          </mxGeometry>
        </mxCell>
        <mxCell id="b4CzyY3gaDAT03zvZMXL-57" value="VAR_TYPE" style="ellipse;whiteSpace=wrap;html=1;" parent="1" vertex="1">
          <mxGeometry x="-398" y="233.75" width="98" height="72.5" as="geometry" />
        </mxCell>
        <mxCell id="b4CzyY3gaDAT03zvZMXL-78" value="&amp;gt;" style="ellipse;whiteSpace=wrap;html=1;aspect=fixed;fontFamily=Helvetica;fontSize=11;fontColor=#000000;" parent="1" vertex="1">
          <mxGeometry x="1276" y="1683.5" width="54" height="54" as="geometry" />
        </mxCell>
        <mxCell id="b4CzyY3gaDAT03zvZMXL-79" value="&amp;lt;" style="ellipse;whiteSpace=wrap;html=1;aspect=fixed;fontFamily=Helvetica;fontSize=11;fontColor=#000000;" parent="1" vertex="1">
          <mxGeometry x="1276" y="1763.5" width="54" height="54" as="geometry" />
        </mxCell>
        <mxCell id="b4CzyY3gaDAT03zvZMXL-80" value="" style="endArrow=classic;html=1;rounded=0;entryX=1;entryY=0.5;entryDx=0;entryDy=0;" parent="1" target="b4CzyY3gaDAT03zvZMXL-78" edge="1">
          <mxGeometry width="50" height="50" relative="1" as="geometry">
            <mxPoint x="1450" y="1620" as="sourcePoint" />
            <mxPoint x="1495" y="1673.5" as="targetPoint" />
            <Array as="points">
              <mxPoint x="1450" y="1711" />
            </Array>
          </mxGeometry>
        </mxCell>
        <mxCell id="b4CzyY3gaDAT03zvZMXL-81" value="" style="endArrow=classic;html=1;rounded=0;" parent="1" edge="1">
          <mxGeometry width="50" height="50" relative="1" as="geometry">
            <mxPoint x="1450" y="1714" as="sourcePoint" />
            <mxPoint x="1325" y="1793.5" as="targetPoint" />
            <Array as="points">
              <mxPoint x="1450" y="1794" />
            </Array>
          </mxGeometry>
        </mxCell>
        <mxCell id="b4CzyY3gaDAT03zvZMXL-82" value="" style="endArrow=none;html=1;rounded=0;entryX=0;entryY=0.5;entryDx=0;entryDy=0;" parent="1" target="b4CzyY3gaDAT03zvZMXL-78" edge="1">
          <mxGeometry width="50" height="50" relative="1" as="geometry">
            <mxPoint x="1175" y="1623.5" as="sourcePoint" />
            <mxPoint x="1215" y="1673.5" as="targetPoint" />
            <Array as="points">
              <mxPoint x="1175" y="1710.5" />
            </Array>
          </mxGeometry>
        </mxCell>
        <mxCell id="b4CzyY3gaDAT03zvZMXL-83" value="" style="endArrow=none;html=1;rounded=0;" parent="1" edge="1">
          <mxGeometry width="50" height="50" relative="1" as="geometry">
            <mxPoint x="1175" y="1713.5" as="sourcePoint" />
            <mxPoint x="1275" y="1793.5" as="targetPoint" />
            <Array as="points">
              <mxPoint x="1175" y="1793.5" />
            </Array>
          </mxGeometry>
        </mxCell>
        <mxCell id="b4CzyY3gaDAT03zvZMXL-89" value="IDENTIFIER" style="rounded=0;whiteSpace=wrap;html=1;" parent="1" vertex="1">
          <mxGeometry x="-330" y="1594" width="132" height="60" as="geometry" />
        </mxCell>
        <mxCell id="b4CzyY3gaDAT03zvZMXL-90" value="" style="endArrow=classic;html=1;rounded=0;entryX=0;entryY=0.5;entryDx=0;entryDy=0;" parent="1" target="-s76jAeznodHaaLhFz4p-33" edge="1">
          <mxGeometry width="50" height="50" relative="1" as="geometry">
            <mxPoint x="-195" y="1623" as="sourcePoint" />
            <mxPoint x="-115" y="1704" as="targetPoint" />
            <Array as="points" />
          </mxGeometry>
        </mxCell>
        <mxCell id="b4CzyY3gaDAT03zvZMXL-95" value="IDENTIFIER" style="rounded=0;whiteSpace=wrap;html=1;" parent="1" vertex="1">
          <mxGeometry x="35" y="1663.5" width="120" height="60" as="geometry" />
        </mxCell>
        <mxCell id="b4CzyY3gaDAT03zvZMXL-96" value="&amp;gt;" style="ellipse;whiteSpace=wrap;html=1;" parent="1" vertex="1">
          <mxGeometry x="-112.5" y="1660.5" width="67.5" height="61.5" as="geometry" />
        </mxCell>
        <mxCell id="b4CzyY3gaDAT03zvZMXL-99" value="" style="endArrow=classic;html=1;rounded=0;entryX=0;entryY=0.5;entryDx=0;entryDy=0;" parent="1" target="b4CzyY3gaDAT03zvZMXL-95" edge="1">
          <mxGeometry width="50" height="50" relative="1" as="geometry">
            <mxPoint x="5" y="1622" as="sourcePoint" />
            <mxPoint x="-65" y="1824" as="targetPoint" />
            <Array as="points">
              <mxPoint x="5" y="1694" />
            </Array>
          </mxGeometry>
        </mxCell>
        <mxCell id="xcrIS7RV7ULqfm_qgROd-2" value="" style="endArrow=classic;html=1;rounded=0;exitX=1;exitY=0.5;exitDx=0;exitDy=0;" parent="1" source="-s76jAeznodHaaLhFz4p-81" edge="1">
          <mxGeometry width="50" height="50" relative="1" as="geometry">
            <mxPoint x="350" y="448.5" as="sourcePoint" />
            <mxPoint x="370" y="402.5" as="targetPoint" />
          </mxGeometry>
        </mxCell>
        <mxCell id="xcrIS7RV7ULqfm_qgROd-3" value="" style="endArrow=classic;html=1;rounded=0;" parent="1" edge="1">
          <mxGeometry width="50" height="50" relative="1" as="geometry">
            <mxPoint x="320" y="521.5" as="sourcePoint" />
            <mxPoint x="370" y="521.5" as="targetPoint" />
          </mxGeometry>
        </mxCell>
        <mxCell id="xcrIS7RV7ULqfm_qgROd-4" value="" style="endArrow=classic;html=1;rounded=0;exitX=1;exitY=0.5;exitDx=0;exitDy=0;" parent="1" source="-s76jAeznodHaaLhFz4p-95" edge="1">
          <mxGeometry width="50" height="50" relative="1" as="geometry">
            <mxPoint x="350" y="661" as="sourcePoint" />
            <mxPoint x="370" y="632" as="targetPoint" />
          </mxGeometry>
        </mxCell>
        <mxCell id="xcrIS7RV7ULqfm_qgROd-6" value="" style="endArrow=classic;html=1;rounded=0;exitX=1;exitY=0.5;exitDx=0;exitDy=0;" parent="1" source="-s76jAeznodHaaLhFz4p-103" edge="1">
          <mxGeometry width="50" height="50" relative="1" as="geometry">
            <mxPoint x="230" y="890" as="sourcePoint" />
            <mxPoint x="370" y="767" as="targetPoint" />
          </mxGeometry>
        </mxCell>
        <mxCell id="xcrIS7RV7ULqfm_qgROd-7" value="" style="endArrow=classic;html=1;rounded=0;exitX=1;exitY=0.5;exitDx=0;exitDy=0;" parent="1" source="-s76jAeznodHaaLhFz4p-114" edge="1">
          <mxGeometry width="50" height="50" relative="1" as="geometry">
            <mxPoint x="390" y="1030" as="sourcePoint" />
            <mxPoint x="370" y="876" as="targetPoint" />
          </mxGeometry>
        </mxCell>
        <mxCell id="xcrIS7RV7ULqfm_qgROd-16" value="" style="endArrow=classic;startArrow=classic;html=1;rounded=0;exitX=0;exitY=0.5;exitDx=0;exitDy=0;" parent="1" source="-s76jAeznodHaaLhFz4p-240" edge="1">
          <mxGeometry width="50" height="50" relative="1" as="geometry">
            <mxPoint x="1265" y="641.5" as="sourcePoint" />
            <mxPoint x="1305" y="561.5" as="targetPoint" />
            <Array as="points">
              <mxPoint x="1305" y="641.5" />
            </Array>
          </mxGeometry>
        </mxCell>
        <mxCell id="xcrIS7RV7ULqfm_qgROd-26" value="" style="endArrow=classic;html=1;rounded=0;entryX=0;entryY=0.5;entryDx=0;entryDy=0;" parent="1" target="-s76jAeznodHaaLhFz4p-265" edge="1">
          <mxGeometry width="50" height="50" relative="1" as="geometry">
            <mxPoint x="1155" y="403.5" as="sourcePoint" />
            <mxPoint x="1225" y="571.5" as="targetPoint" />
          </mxGeometry>
        </mxCell>
        <mxCell id="xcrIS7RV7ULqfm_qgROd-28" value="" style="endArrow=none;html=1;rounded=0;exitX=1;exitY=0.5;exitDx=0;exitDy=0;" parent="1" source="-s76jAeznodHaaLhFz4p-265" edge="1">
          <mxGeometry width="50" height="50" relative="1" as="geometry">
            <mxPoint x="1495" y="441.25" as="sourcePoint" />
            <mxPoint x="1455" y="403.25" as="targetPoint" />
          </mxGeometry>
        </mxCell>
        <mxCell id="xcrIS7RV7ULqfm_qgROd-31" value="IDENTIFIER" style="rounded=0;whiteSpace=wrap;html=1;" parent="1" vertex="1">
          <mxGeometry x="1240" y="1411.75" width="120" height="60" as="geometry" />
        </mxCell>
        <mxCell id="xcrIS7RV7ULqfm_qgROd-36" value="" style="endArrow=classic;html=1;rounded=0;entryX=0;entryY=0.5;entryDx=0;entryDy=0;" parent="1" target="xcrIS7RV7ULqfm_qgROd-31" edge="1">
          <mxGeometry width="50" height="50" relative="1" as="geometry">
            <mxPoint x="1180" y="1442" as="sourcePoint" />
            <mxPoint x="1180" y="1400" as="targetPoint" />
          </mxGeometry>
        </mxCell>
        <mxCell id="xcrIS7RV7ULqfm_qgROd-42" value="" style="endArrow=none;html=1;rounded=0;exitX=1;exitY=0.5;exitDx=0;exitDy=0;" parent="1" source="xcrIS7RV7ULqfm_qgROd-31" edge="1">
          <mxGeometry width="50" height="50" relative="1" as="geometry">
            <mxPoint x="1390" y="1490" as="sourcePoint" />
            <mxPoint x="1450" y="1442" as="targetPoint" />
          </mxGeometry>
        </mxCell>
        <mxCell id="xcrIS7RV7ULqfm_qgROd-43" value="VAR_TYPE" style="ellipse;whiteSpace=wrap;html=1;" parent="1" vertex="1">
          <mxGeometry x="119" y="1254" width="100" height="67" as="geometry" />
        </mxCell>
        <mxCell id="xcrIS7RV7ULqfm_qgROd-50" value="" style="endArrow=classic;html=1;rounded=0;exitX=1;exitY=0.5;exitDx=0;exitDy=0;" parent="1" source="b4CzyY3gaDAT03zvZMXL-95" edge="1">
          <mxGeometry width="50" height="50" relative="1" as="geometry">
            <mxPoint x="145" y="1742" as="sourcePoint" />
            <mxPoint x="195" y="1694" as="targetPoint" />
          </mxGeometry>
        </mxCell>
        <mxCell id="xcrIS7RV7ULqfm_qgROd-53" value="" style="endArrow=classic;html=1;rounded=0;entryX=0;entryY=0.5;entryDx=0;entryDy=0;" parent="1" target="b4CzyY3gaDAT03zvZMXL-96" edge="1">
          <mxGeometry width="50" height="50" relative="1" as="geometry">
            <mxPoint x="-145" y="1622" as="sourcePoint" />
            <mxPoint x="-35" y="1692" as="targetPoint" />
            <Array as="points">
              <mxPoint x="-145" y="1692" />
            </Array>
          </mxGeometry>
        </mxCell>
        <mxCell id="xcrIS7RV7ULqfm_qgROd-54" value="" style="endArrow=classic;html=1;rounded=0;exitX=1;exitY=0.5;exitDx=0;exitDy=0;" parent="1" source="b4CzyY3gaDAT03zvZMXL-96" edge="1">
          <mxGeometry width="50" height="50" relative="1" as="geometry">
            <mxPoint x="-125" y="1822" as="sourcePoint" />
            <mxPoint x="-15" y="1622" as="targetPoint" />
            <Array as="points">
              <mxPoint x="-15" y="1691" />
            </Array>
          </mxGeometry>
        </mxCell>
        <mxCell id="7g_JC95HMwKDd0Zi6JwD-1" value="is" style="ellipse;whiteSpace=wrap;html=1;" parent="1" vertex="1">
          <mxGeometry x="-68" y="246.5" width="54" height="47" as="geometry" />
        </mxCell>
        <mxCell id="7g_JC95HMwKDd0Zi6JwD-2" value="" style="endArrow=classic;html=1;rounded=0;exitX=1;exitY=0.5;exitDx=0;exitDy=0;entryX=0;entryY=0.5;entryDx=0;entryDy=0;" parent="1" source="-s76jAeznodHaaLhFz4p-64" target="7g_JC95HMwKDd0Zi6JwD-1" edge="1">
          <mxGeometry width="50" height="50" relative="1" as="geometry">
            <mxPoint x="-120" y="320" as="sourcePoint" />
            <mxPoint x="-70" y="270" as="targetPoint" />
          </mxGeometry>
        </mxCell>
        <mxCell id="8ygw2xqHuKe9CShxlt0k-2" style="edgeStyle=orthogonalEdgeStyle;rounded=0;orthogonalLoop=1;jettySize=auto;html=1;exitX=1;exitY=0.5;exitDx=0;exitDy=0;entryX=0;entryY=0.5;entryDx=0;entryDy=0;" edge="1" parent="1" source="8ygw2xqHuKe9CShxlt0k-1" target="-s76jAeznodHaaLhFz4p-101">
          <mxGeometry relative="1" as="geometry" />
        </mxCell>
        <mxCell id="8ygw2xqHuKe9CShxlt0k-1" value="\n" style="ellipse;whiteSpace=wrap;html=1;" vertex="1" parent="1">
          <mxGeometry x="-420" y="741.5" width="60" height="50" as="geometry" />
        </mxCell>
        <mxCell id="8ygw2xqHuKe9CShxlt0k-4" value="" style="edgeStyle=orthogonalEdgeStyle;rounded=0;orthogonalLoop=1;jettySize=auto;html=1;" edge="1" parent="1" source="8ygw2xqHuKe9CShxlt0k-3" target="-s76jAeznodHaaLhFz4p-16">
          <mxGeometry relative="1" as="geometry" />
        </mxCell>
        <mxCell id="8ygw2xqHuKe9CShxlt0k-3" value="," style="ellipse;whiteSpace=wrap;html=1;" vertex="1" parent="1">
          <mxGeometry x="-115" y="1084" width="54" height="47" as="geometry" />
        </mxCell>
        <mxCell id="8ygw2xqHuKe9CShxlt0k-12" value="" style="edgeStyle=orthogonalEdgeStyle;rounded=0;orthogonalLoop=1;jettySize=auto;html=1;" edge="1" parent="1" source="8ygw2xqHuKe9CShxlt0k-6" target="-s76jAeznodHaaLhFz4p-20">
          <mxGeometry relative="1" as="geometry" />
        </mxCell>
        <mxCell id="8ygw2xqHuKe9CShxlt0k-6" value="VAR_TYPE" style="ellipse;whiteSpace=wrap;html=1;" vertex="1" parent="1">
          <mxGeometry x="-408.5" y="1253.5" width="100" height="67" as="geometry" />
        </mxCell>
        <mxCell id="8ygw2xqHuKe9CShxlt0k-15" value="" style="edgeStyle=orthogonalEdgeStyle;rounded=0;orthogonalLoop=1;jettySize=auto;html=1;" edge="1" parent="1" source="8ygw2xqHuKe9CShxlt0k-8" target="xcrIS7RV7ULqfm_qgROd-43">
          <mxGeometry relative="1" as="geometry" />
        </mxCell>
        <mxCell id="8ygw2xqHuKe9CShxlt0k-8" value="(" style="ellipse;whiteSpace=wrap;html=1;" vertex="1" parent="1">
          <mxGeometry x="8" y="1257" width="64" height="63" as="geometry" />
        </mxCell>
        <mxCell id="8ygw2xqHuKe9CShxlt0k-16" value="" style="edgeStyle=orthogonalEdgeStyle;rounded=0;orthogonalLoop=1;jettySize=auto;html=1;" edge="1" parent="1" source="8ygw2xqHuKe9CShxlt0k-11" target="-s76jAeznodHaaLhFz4p-85">
          <mxGeometry relative="1" as="geometry" />
        </mxCell>
        <mxCell id="8ygw2xqHuKe9CShxlt0k-11" value=")" style="ellipse;whiteSpace=wrap;html=1;" vertex="1" parent="1">
          <mxGeometry x="440" y="1258" width="64" height="63" as="geometry" />
        </mxCell>
        <mxCell id="8ygw2xqHuKe9CShxlt0k-17" value="&amp;lt;" style="ellipse;whiteSpace=wrap;html=1;" vertex="1" parent="1">
          <mxGeometry x="-112.5" y="1733.5" width="67.5" height="61.5" as="geometry" />
        </mxCell>
        <mxCell id="8ygw2xqHuKe9CShxlt0k-18" value="" style="endArrow=classic;html=1;rounded=0;entryX=0;entryY=0.5;entryDx=0;entryDy=0;" edge="1" parent="1" target="8ygw2xqHuKe9CShxlt0k-17">
          <mxGeometry width="50" height="50" relative="1" as="geometry">
            <mxPoint x="-145" y="1625" as="sourcePoint" />
            <mxPoint x="-113" y="1701" as="targetPoint" />
            <Array as="points">
              <mxPoint x="-145" y="1765" />
            </Array>
          </mxGeometry>
        </mxCell>
        <mxCell id="8ygw2xqHuKe9CShxlt0k-21" value="" style="edgeStyle=orthogonalEdgeStyle;rounded=0;orthogonalLoop=1;jettySize=auto;html=1;" edge="1" parent="1" source="8ygw2xqHuKe9CShxlt0k-19" target="-s76jAeznodHaaLhFz4p-55">
          <mxGeometry relative="1" as="geometry" />
        </mxCell>
        <mxCell id="8ygw2xqHuKe9CShxlt0k-19" value="(" style="ellipse;whiteSpace=wrap;html=1;" vertex="1" parent="1">
          <mxGeometry x="-82.5" y="1932" width="64" height="63" as="geometry" />
        </mxCell>
        <mxCell id="8ygw2xqHuKe9CShxlt0k-22" value=")" style="ellipse;whiteSpace=wrap;html=1;" vertex="1" parent="1">
          <mxGeometry x="266.5" y="1932" width="64" height="63" as="geometry" />
        </mxCell>
        <mxCell id="8ygw2xqHuKe9CShxlt0k-23" value="" style="endArrow=classic;html=1;rounded=0;exitX=1;exitY=0.5;exitDx=0;exitDy=0;" edge="1" parent="1" source="8ygw2xqHuKe9CShxlt0k-22">
          <mxGeometry width="50" height="50" relative="1" as="geometry">
            <mxPoint x="376.5" y="1979.75" as="sourcePoint" />
            <mxPoint x="386.5" y="1963.75" as="targetPoint" />
          </mxGeometry>
        </mxCell>
        <mxCell id="8ygw2xqHuKe9CShxlt0k-24" value="" style="endArrow=classic;html=1;rounded=0;entryX=0.033;entryY=0.5;entryDx=0;entryDy=0;entryPerimeter=0;" edge="1" target="8ygw2xqHuKe9CShxlt0k-33" parent="1">
          <mxGeometry width="50" height="50" relative="1" as="geometry">
            <mxPoint x="1141" y="908.25" as="sourcePoint" />
            <mxPoint x="1251" y="910.25" as="targetPoint" />
          </mxGeometry>
        </mxCell>
        <mxCell id="8ygw2xqHuKe9CShxlt0k-25" value="" style="endArrow=classic;html=1;rounded=0;exitX=1;exitY=0.5;exitDx=0;exitDy=0;" edge="1" source="8ygw2xqHuKe9CShxlt0k-33" parent="1">
          <mxGeometry width="50" height="50" relative="1" as="geometry">
            <mxPoint x="1371" y="910.25" as="sourcePoint" />
            <mxPoint x="1471" y="908.25" as="targetPoint" />
          </mxGeometry>
        </mxCell>
        <mxCell id="8ygw2xqHuKe9CShxlt0k-26" value="" style="endArrow=none;html=1;rounded=0;" edge="1" parent="1">
          <mxGeometry width="50" height="50" relative="1" as="geometry">
            <mxPoint x="1181" y="910.25" as="sourcePoint" />
            <mxPoint x="1411" y="905.25" as="targetPoint" />
            <Array as="points">
              <mxPoint x="1181" y="980.25" />
              <mxPoint x="1411" y="980.25" />
            </Array>
          </mxGeometry>
        </mxCell>
        <mxCell id="8ygw2xqHuKe9CShxlt0k-27" value="" style="endArrow=classic;html=1;rounded=0;entryX=0;entryY=0.5;entryDx=0;entryDy=0;" edge="1" target="8ygw2xqHuKe9CShxlt0k-32" parent="1">
          <mxGeometry width="50" height="50" relative="1" as="geometry">
            <mxPoint x="1141" y="1068.25" as="sourcePoint" />
            <mxPoint x="1251" y="1073.25" as="targetPoint" />
          </mxGeometry>
        </mxCell>
        <mxCell id="8ygw2xqHuKe9CShxlt0k-28" value="" style="endArrow=classic;html=1;rounded=0;" edge="1" parent="1">
          <mxGeometry width="50" height="50" relative="1" as="geometry">
            <mxPoint x="1351" y="1065.25" as="sourcePoint" />
            <mxPoint x="1471" y="1065.25" as="targetPoint" />
          </mxGeometry>
        </mxCell>
        <mxCell id="8ygw2xqHuKe9CShxlt0k-29" value="" style="endArrow=none;html=1;rounded=0;" edge="1" parent="1">
          <mxGeometry width="50" height="50" relative="1" as="geometry">
            <mxPoint x="1181" y="1073.25" as="sourcePoint" />
            <mxPoint x="1411" y="1065.25" as="targetPoint" />
            <Array as="points">
              <mxPoint x="1181" y="1143.25" />
              <mxPoint x="1411" y="1143.25" />
            </Array>
          </mxGeometry>
        </mxCell>
        <mxCell id="8ygw2xqHuKe9CShxlt0k-30" value="&lt;b&gt;STRING&lt;/b&gt;" style="text;html=1;strokeColor=none;fillColor=none;align=center;verticalAlign=middle;whiteSpace=wrap;rounded=0;" vertex="1" parent="1">
          <mxGeometry x="1111" y="870.25" width="60" height="30" as="geometry" />
        </mxCell>
        <mxCell id="8ygw2xqHuKe9CShxlt0k-31" value="&lt;b&gt;INT&lt;/b&gt;" style="text;html=1;strokeColor=none;fillColor=none;align=center;verticalAlign=middle;whiteSpace=wrap;rounded=0;" vertex="1" parent="1">
          <mxGeometry x="1101" y="1031.25" width="60" height="30" as="geometry" />
        </mxCell>
        <mxCell id="8ygw2xqHuKe9CShxlt0k-32" value="NUMBER" style="ellipse;whiteSpace=wrap;html=1;fontFamily=Helvetica;fontSize=11;fontColor=#000000;" vertex="1" parent="1">
          <mxGeometry x="1257" y="1036.25" width="94" height="64" as="geometry" />
        </mxCell>
        <mxCell id="8ygw2xqHuKe9CShxlt0k-33" value="LETTER" style="ellipse;whiteSpace=wrap;html=1;fontFamily=Helvetica;fontSize=11;fontColor=#000000;" vertex="1" parent="1">
          <mxGeometry x="1257" y="870.25" width="94" height="75" as="geometry" />
        </mxCell>
      </root>
    </mxGraphModel>
  </diagram>
</mxfile>
